<?xml version="1.0" encoding="UTF-8" standalone="no"?>
<!DOCTYPE svg PUBLIC "-//W3C//DTD SVG 1.1//EN"
"http://www.w3.org/Graphics/SVG/1.1/DTD/svg11.dtd">
<svg viewBox="0 0 1466 825" version="1.1" xmlns="http://www.w3.org/2000/svg" xmlns:xlink="http://www.w3.org/1999/xlink">
<defs>
<clipPath id="c0_3"><path d="M0,825V0H1466.7V825Z"/></clipPath>
<clipPath id="c1_3"><path d="M1127,85.8V10.1h75.7V85.8Z"/></clipPath>
<clipPath id="c2_3"><path d="M1466.7,825H0V0H1466.7V825Z"/></clipPath>
<clipPath id="c3_3"><path d="M0,825V0H1466.7V825H0Z"/></clipPath>
<style type="text/css"><![CDATA[
.g0_3{
fill: #3E3E3E;
}
.g1_3{
fill: none;
stroke: #2B5259;
stroke-width: 1.145;
stroke-linejoin: round;
}
.g2_3{
fill: #4A66AC;
}
.g3_3{
fill: none;
stroke: #34497D;
stroke-width: 1.527;
stroke-linejoin: round;
}
.g4_3{
fill: #629DD1;
}
.g5_3{
fill: none;
stroke: #467299;
stroke-width: 1.527;
stroke-linejoin: round;
}
.g6_3{
fill: #FFC000;
}
.g7_3{
fill: none;
stroke: #629DD1;
stroke-width: 4.583;
stroke-linejoin: round;
stroke-dasharray: 14,5;
}
.g8_3{
fill: #FFF;
}
]]></style>
</defs>
<g clip-path="url(#c0_3)">
<path fill-rule="evenodd" d="M0,825H1466.7V0H0V825Z" class="g0_3"/>
<image preserveAspectRatio="none" x="0" y="0" width="1467" height="825" xlink:href="img/1.png"/>
<path d="M-4.1,100.1H1466.6" class="g1_3"/>
</g>
<image clip-path="url(#c1_3)" preserveAspectRatio="none" x="1127" y="10" width="76" height="76" xlink:href="img/2.png"/>
<path fill-rule="evenodd" d="M593.5,672.2c0,-6,4.8,-10.9,10.8,-10.9H765c6,0,10.9,4.9,10.9,10.9v43.5c0,6,-4.9,10.9,-10.9,10.9H604.3c-6,0,-10.8,-4.9,-10.8,-10.9Z" class="g2_3"/>
<path d="M593.5,672.2c0,-6,4.8,-10.9,10.8,-10.9H765c6,0,10.9,4.9,10.9,10.9v43.5c0,6,-4.9,10.9,-10.9,10.9H604.3c-6,0,-10.8,-4.9,-10.8,-10.9Z" class="g3_3"/>
<path fill-rule="evenodd" d="M301.6,673.4c0,-6.3,5.1,-11.4,11.3,-11.4H488.2c6.3,0,11.4,5.1,11.4,11.4v45.3c0,6.3,-5.1,11.3,-11.4,11.3H312.9c-6.2,0,-11.3,-5,-11.3,-11.3Z" class="g2_3"/>
<path d="M301.6,673.4c0,-6.3,5.1,-11.4,11.3,-11.4H488.2c6.3,0,11.4,5.1,11.4,11.4v45.3c0,6.3,-5.1,11.3,-11.4,11.3H312.9c-6.2,0,-11.3,-5,-11.3,-11.3Z" class="g3_3"/>
<path fill-rule="evenodd" d="M859.8,672.2c0,-6,4.9,-10.9,10.9,-10.9H1179c6,0,10.8,4.9,10.8,10.9v43.5c0,6,-4.8,10.9,-10.8,10.9H870.7c-6,0,-10.9,-4.9,-10.9,-10.9Z" class="g2_3"/>
<path d="M859.8,672.2c0,-6,4.9,-10.9,10.9,-10.9H1179c6,0,10.8,4.9,10.8,10.9v43.5c0,6,-4.8,10.9,-10.8,10.9H870.7c-6,0,-10.9,-4.9,-10.9,-10.9Z" class="g3_3"/>
<path fill-rule="evenodd" d="M146.7,542.2c0,-4.1,3.3,-7.4,7.4,-7.4H355.5c4.2,0,7.5,3.3,7.5,7.4v29.9c0,4.1,-3.3,7.4,-7.5,7.4H154.1c-4.1,0,-7.4,-3.3,-7.4,-7.4Z" class="g4_3"/>
<path d="M146.7,542.2c0,-4.1,3.3,-7.4,7.4,-7.4H355.5c4.2,0,7.5,3.3,7.5,7.4v29.9c0,4.1,-3.3,7.4,-7.5,7.4H154.1c-4.1,0,-7.4,-3.3,-7.4,-7.4Z" class="g5_3"/>
<path fill-rule="evenodd" d="M495.2,476.8c0,-4.5,3.6,-8.2,8.1,-8.2H736.2c4.5,0,8.1,3.7,8.1,8.2v32.6c0,4.5,-3.6,8.1,-8.1,8.1H503.3c-4.5,0,-8.1,-3.6,-8.1,-8.1Z" class="g6_3"/>
<path d="M495.2,476.8c0,-4.5,3.6,-8.2,8.1,-8.2H736.2c4.5,0,8.1,3.7,8.1,8.2v32.6c0,4.5,-3.6,8.1,-8.1,8.1H503.3c-4.5,0,-8.1,-3.6,-8.1,-8.1Z" class="g5_3"/>
<path d="M122.9,461.8c0,-15.3,12.5,-27.8,27.8,-27.8H832.1c15.4,0,27.8,12.5,27.8,27.8V573.1c0,15.3,-12.4,27.8,-27.8,27.8H150.7c-15.3,0,-27.8,-12.5,-27.8,-27.8Z" class="g7_3"/>
<path d="M399.8,662.1V631.4c0,-.4,.4,-.7,.8,-.7h90.8l-.8,.7v-23h1.5v23c0,.5,-.3,.8,-.7,.8H400.6l.7,-.8v30.7Zm87,-52.1l4.6,-9.2l4.5,9.2Z" class="g8_3"/>
<path clip-path="url(#c0_3)" d="M685.5,661.2V631c0,-.4,-.4,-.8,-.8,-.8H491.3l.8,.8V608.4h-1.5V631c0,.4,.3,.8,.7,.8H684.7L684,631v30.2ZM495.9,610l-4.6,-9.2l-4.5,9.2Z" class="g8_3"/>
<path clip-path="url(#c2_3)" d="M1025.6,661.2V517.4c0,-.5,-.3,-.8,-.8,-.8H867.5v1.5h157.3l-.7,-.7V661.2ZM869,512.8l-9.2,4.6L869,522Z" class="g8_3"/>
<path fill-rule="evenodd" d="M139.9,351.9c0,-4.8,3.9,-8.7,8.7,-8.7H418.5c4.8,0,8.7,3.9,8.7,8.7v34.8c0,4.9,-3.9,8.7,-8.7,8.7H148.6c-4.8,0,-8.7,-3.8,-8.7,-8.7Z" class="g4_3"/>
<path d="M139.9,351.9c0,-4.8,3.9,-8.7,8.7,-8.7H418.5c4.8,0,8.7,3.9,8.7,8.7v34.8c0,4.9,-3.9,8.7,-8.7,8.7H148.6c-4.8,0,-8.7,-3.8,-8.7,-8.7Z" class="g5_3"/>
<path fill-rule="evenodd" d="M394,269.5c0,-6.3,5.1,-11.4,11.3,-11.4H599c6.2,0,11.3,5.1,11.3,11.4v45.3c0,6.3,-5.1,11.4,-11.3,11.4H405.3c-6.2,0,-11.3,-5.1,-11.3,-11.4Z" class="g6_3"/>
<path d="M394,269.5c0,-6.3,5.1,-11.4,11.3,-11.4H599c6.2,0,11.3,5.1,11.3,11.4v45.3c0,6.3,-5.1,11.4,-11.3,11.4H405.3c-6.2,0,-11.3,-5.1,-11.3,-11.4Z" class="g5_3"/>
<path d="M122.9,269c0,-15.4,12.5,-27.8,27.8,-27.8H1205.2c15.4,0,27.8,12.4,27.8,27.8V380.2c0,15.4,-12.4,27.8,-27.8,27.8H150.7c-15.3,0,-27.8,-12.4,-27.8,-27.8Z" class="g7_3"/>
<path fill-rule="evenodd" d="M146.7,478.3c0,-4.2,3.3,-7.5,7.4,-7.5H355.5c4.2,0,7.5,3.3,7.5,7.5v29.8c0,4.1,-3.3,7.4,-7.5,7.4H154.1c-4.1,0,-7.4,-3.3,-7.4,-7.4Z" class="g6_3"/>
<path d="M146.7,478.3c0,-4.2,3.3,-7.5,7.4,-7.5H355.5c4.2,0,7.5,3.3,7.5,7.5v29.8c0,4.1,-3.3,7.4,-7.5,7.4H154.1c-4.1,0,-7.4,-3.3,-7.4,-7.4Z" class="g5_3"/>
<path fill-rule="evenodd" d="M678.3,269.5c0,-6.3,5.1,-11.4,11.4,-11.4H883.3c6.3,0,11.4,5.1,11.4,11.4v45.3c0,6.3,-5.1,11.4,-11.4,11.4H689.7c-6.3,0,-11.4,-5.1,-11.4,-11.4Z" class="g6_3"/>
<path d="M678.3,269.5c0,-6.3,5.1,-11.4,11.4,-11.4H883.3c6.3,0,11.4,5.1,11.4,11.4v45.3c0,6.3,-5.1,11.4,-11.4,11.4H689.7c-6.3,0,-11.4,-5.1,-11.4,-11.4Z" class="g5_3"/>
<path d="M363,492.4h66c.5,0,.8,.3,.8,.8l-.8,-.8h58.5v1.5H429c-.4,0,-.7,-.3,-.7,-.7l.7,.7H363Zm122.9,-3.8l9.2,4.6l-9.2,4.6Z" class="g8_3"/>
<path clip-path="url(#c3_3)" d="M501.4,326.2v71.2c0,.4,.3,.8,.7,.8H619.7l-.8,-.8V461h1.6V397.4c0,-.4,-.4,-.8,-.8,-.8H502.1l.8,.8V326.2ZM615.1,459.5l4.6,9.2l4.6,-9.2Z" class="g8_3"/>
<path clip-path="url(#c0_3)" d="M787.2,326.2v71.2c0,.4,-.4,.8,-.8,.8H619.7l.7,-.8V461h-1.5V397.4c0,-.4,.3,-.8,.8,-.8H786.4l-.8,.8V326.2ZM624.3,459.5l-4.6,9.2l-4.6,-9.2Z" class="g8_3"/>
</svg>