<?xml version="1.0" encoding="UTF-8" standalone="no"?>
<!DOCTYPE svg PUBLIC "-//W3C//DTD SVG 1.1//EN"
"http://www.w3.org/Graphics/SVG/1.1/DTD/svg11.dtd">
<svg viewBox="0 0 1466 825" version="1.1" xmlns="http://www.w3.org/2000/svg" xmlns:xlink="http://www.w3.org/1999/xlink">
<defs>
<clipPath id="c0_2"><path d="M0,825V0H1466.7V825Z"/></clipPath>
<clipPath id="c1_2"><path d="M1135.9,72.6V2.6H1206v70Z"/></clipPath>
<clipPath id="c2_2"><path d="M0,275.7V237.1H1255.7v38.6Z"/></clipPath>
<clipPath id="c3_2"><path d="M1273.4,254.5V237.1h192.9v17.4Z"/></clipPath>
<style type="text/css"><![CDATA[
.g0_2{
fill: none;
stroke: #30243C;
stroke-width: 1.145;
stroke-linejoin: round;
}
.g1_2{
fill: #252525;
}
.g2_2{
fill: #F07F09;
}
.g3_2{
fill: none;
stroke: #B05C05;
stroke-width: 1.527;
stroke-linejoin: round;
}
.g4_2{
fill: #1B587C;
}
.g5_2{
fill: none;
stroke: #1B587C;
stroke-width: 1.527;
stroke-linejoin: round;
}
]]></style>
</defs>
<g clip-path="url(#c0_2)">
<image x="0" y="0" width="1467" height="825" xlink:href="shade/1.png"/>
<image preserveAspectRatio="none" x="0" y="0" width="1467" height="825" xlink:href="img/1.png"/>
<path d="M-4.1,100.1H1466.6" class="g0_2"/>
</g>
<image clip-path="url(#c1_2)" preserveAspectRatio="none" x="1136" y="3" width="70" height="70" xlink:href="img/2.png"/>
<image clip-path="url(#c2_2)" preserveAspectRatio="none" x="0" y="237" width="1256" height="39" xlink:href="img/3.png"/>
<image clip-path="url(#c3_2)" preserveAspectRatio="none" x="1273" y="237" width="193" height="17" xlink:href="img/4.png"/>
<path fill-rule="evenodd" d="M0,238H1255.7V73.3H0V238Z" class="g1_2"/>
<path fill-rule="evenodd" d="M1273.4,238h192.9V73.3H1273.4V238Z" class="g2_2"/>
<path fill-rule="evenodd" d="M861.9,589.2c0,-7.5,6,-13.5,13.5,-13.5h260c7.5,0,13.5,6,13.5,13.5v54.3c0,7.5,-6,13.6,-13.5,13.6h-260c-7.5,0,-13.5,-6.1,-13.5,-13.6Z" class="g2_2"/>
<path d="M861.9,589.2c0,-7.5,6,-13.5,13.5,-13.5h260c7.5,0,13.5,6,13.5,13.5v54.3c0,7.5,-6,13.6,-13.5,13.6h-260c-7.5,0,-13.5,-6.1,-13.5,-13.6Z" class="g3_2"/>
<path fill-rule="evenodd" d="M618,529.8c0,-5,4.1,-9.1,9.2,-9.1H811.4c5.1,0,9.2,4.1,9.2,9.1v36.7c0,5.1,-4.1,9.2,-9.2,9.2H627.2c-5.1,0,-9.2,-4.1,-9.2,-9.2Z" class="g4_2"/>
<path d="M618,529.8c0,-5,4.1,-9.1,9.2,-9.1H811.4c5.1,0,9.2,4.1,9.2,9.1v36.7c0,5.1,-4.1,9.2,-9.2,9.2H627.2c-5.1,0,-9.2,-4.1,-9.2,-9.2Z" class="g5_2"/>
<path fill-rule="evenodd" d="M1182.1,533.3c0,-5,4.1,-9.1,9.2,-9.1H1406c5,0,9.2,4.1,9.2,9.1V570c0,5,-4.2,9.2,-9.2,9.2H1191.3c-5.1,0,-9.2,-4.2,-9.2,-9.2Z" class="g4_2"/>
<path d="M1182.1,533.3c0,-5,4.1,-9.1,9.2,-9.1H1406c5,0,9.2,4.1,9.2,9.1V570c0,5,-4.2,9.2,-9.2,9.2H1191.3c-5.1,0,-9.2,-4.2,-9.2,-9.2Z" class="g5_2"/>
<path fill-rule="evenodd" d="M1182.1,621.1c0,-5,4.1,-9.1,9.2,-9.1H1406c5,0,9.2,4.1,9.2,9.1v36.7c0,5.1,-4.2,9.2,-9.2,9.2H1191.3c-5.1,0,-9.2,-4.1,-9.2,-9.2Z" class="g4_2"/>
<path d="M1182.1,621.1c0,-5,4.1,-9.1,9.2,-9.1H1406c5,0,9.2,4.1,9.2,9.1v36.7c0,5.1,-4.2,9.2,-9.2,9.2H1191.3c-5.1,0,-9.2,-4.1,-9.2,-9.2Z" class="g5_2"/>
<path d="M861.8,617.1H719.4c-.4,0,-.8,-.4,-.8,-.8v-33h1.6v33l-.8,-.8H861.8Zm-147,-32.3l4.6,-9.1l4.6,9.1Z" class="g2_2"/>
<path d="M1148.9,617.2h16.6c.5,0,.8,-.4,.8,-.8V551.7l-.8,.7h9v-1.5h-9c-.4,0,-.7,.3,-.7,.8v64.7l.7,-.8h-16.6Zm24.1,-61l9.1,-4.5l-9.1,-4.6Z" class="g2_2"/>
<path d="M1148.9,615.6H1163c.4,0,.8,.3,.8,.8v19.8l-.8,-.7h6.4V637H1163c-.4,0,-.8,-.3,-.8,-.8V616.4l.8,.7h-14.1Zm19,16.1l9.1,4.5l-9.1,4.6Z" class="g2_2"/>
</svg>