<?xml version="1.0" encoding="UTF-8" standalone="no"?>
<!DOCTYPE svg PUBLIC "-//W3C//DTD SVG 1.1//EN"
"http://www.w3.org/Graphics/SVG/1.1/DTD/svg11.dtd">
<svg viewBox="0 0 1466 825" version="1.1" xmlns="http://www.w3.org/2000/svg" xmlns:xlink="http://www.w3.org/1999/xlink">
<defs>
<clipPath id="c0_7"><path d="M0,825V0H1466.7V825Z"/></clipPath>
<clipPath id="c1_7"><path d="M1135.9,72.6V2.6H1206v70Z"/></clipPath>
<clipPath id="c2_7"><path d="M0,275.7V237.1H1255.7v38.6Z"/></clipPath>
<clipPath id="c3_7"><path d="M1273.4,254.5V237.1h192.9v17.4Z"/></clipPath>
<clipPath id="c4_7"><path d="M623,470.4V261.3h506.3V470.4Z"/></clipPath>
<clipPath id="c5_7"><path d="M623,758.1V515.9h506.3V758.1Z"/></clipPath>
<style type="text/css"><![CDATA[
.g0_7{
fill: none;
stroke: #30243C;
stroke-width: 1.145;
stroke-linejoin: round;
}
.g1_7{
fill: #252525;
}
.g2_7{
fill: #F07F09;
}
]]></style>
</defs>
<g clip-path="url(#c0_7)">
<image x="0" y="0" width="1467" height="825" xlink:href="shade/1.png"/>
<image preserveAspectRatio="none" x="0" y="0" width="1467" height="825" xlink:href="img/1.png"/>
<path d="M-4.1,100.1H1466.6" class="g0_7"/>
</g>
<image clip-path="url(#c1_7)" preserveAspectRatio="none" x="1136" y="3" width="70" height="70" xlink:href="img/2.png"/>
<image clip-path="url(#c2_7)" preserveAspectRatio="none" x="0" y="237" width="1256" height="39" xlink:href="img/3.png"/>
<image clip-path="url(#c3_7)" preserveAspectRatio="none" x="1273" y="237" width="193" height="17" xlink:href="img/4.png"/>
<path fill-rule="evenodd" d="M0,238H1255.7V73.3H0V238Z" class="g1_7"/>
<path fill-rule="evenodd" d="M1273.4,238h192.9V73.3H1273.4V238Z" class="g2_7"/>
<g clip-path="url(#c0_7)">
<image preserveAspectRatio="none" x="66" y="260" width="63" height="77" xlink:href="img/5.png"/>
<image preserveAspectRatio="none" x="92" y="257" width="197" height="82" xlink:href="img/6.png"/>
<image preserveAspectRatio="none" x="123" y="294" width="58" height="70" xlink:href="img/7.png"/>
<image preserveAspectRatio="none" x="150" y="292" width="137" height="74" xlink:href="img/8.png"/>
<image preserveAspectRatio="none" x="123" y="324" width="58" height="70" xlink:href="img/9.png"/>
<image preserveAspectRatio="none" x="150" y="322" width="454" height="73" xlink:href="img/10.png"/>
<image preserveAspectRatio="none" x="150" y="343" width="137" height="74" xlink:href="img/11.png"/>
<image preserveAspectRatio="none" x="123" y="375" width="58" height="70" xlink:href="img/12.png"/>
<image preserveAspectRatio="none" x="150" y="373" width="384" height="74" xlink:href="img/13.png"/>
<image preserveAspectRatio="none" x="66" y="409" width="63" height="78" xlink:href="img/14.png"/>
<image preserveAspectRatio="none" x="92" y="407" width="200" height="82" xlink:href="img/15.png"/>
<image preserveAspectRatio="none" x="123" y="444" width="58" height="70" xlink:href="img/16.png"/>
<image preserveAspectRatio="none" x="150" y="442" width="213" height="74" xlink:href="img/17.png"/>
<image preserveAspectRatio="none" x="123" y="473" width="58" height="71" xlink:href="img/18.png"/>
<image preserveAspectRatio="none" x="150" y="471" width="262" height="74" xlink:href="img/19.png"/>
<image preserveAspectRatio="none" x="123" y="503" width="58" height="70" xlink:href="img/20.png"/>
<image preserveAspectRatio="none" x="150" y="501" width="363" height="74" xlink:href="img/21.png"/>
<image preserveAspectRatio="none" x="123" y="532" width="58" height="71" xlink:href="img/22.png"/>
<image preserveAspectRatio="none" x="150" y="530" width="218" height="74" xlink:href="img/23.png"/>
<image preserveAspectRatio="none" x="123" y="562" width="58" height="70" xlink:href="img/24.png"/>
<image preserveAspectRatio="none" x="150" y="560" width="301" height="74" xlink:href="img/25.png"/>
<image preserveAspectRatio="none" x="66" y="596" width="63" height="78" xlink:href="img/26.png"/>
<image preserveAspectRatio="none" x="92" y="594" width="163" height="82" xlink:href="img/27.png"/>
<image preserveAspectRatio="none" x="209" y="594" width="151" height="82" xlink:href="img/28.png"/>
<image preserveAspectRatio="none" x="304" y="594" width="267" height="82" xlink:href="img/29.png"/>
<image preserveAspectRatio="none" x="92" y="618" width="297" height="82" xlink:href="img/30.png"/>
</g>
<image clip-path="url(#c4_7)" preserveAspectRatio="none" x="623" y="261" width="506" height="209" xlink:href="img/31.jpg"/>
<image clip-path="url(#c5_7)" preserveAspectRatio="none" x="623" y="516" width="506" height="242" xlink:href="img/32.jpg"/>
</svg>