<?xml version="1.0" encoding="UTF-8" standalone="no"?>
<!DOCTYPE svg PUBLIC "-//W3C//DTD SVG 1.1//EN"
"http://www.w3.org/Graphics/SVG/1.1/DTD/svg11.dtd">
<svg viewBox="0 0 1466 825" version="1.1" xmlns="http://www.w3.org/2000/svg" xmlns:xlink="http://www.w3.org/1999/xlink">
<defs>
<clipPath id="c0_18"><path d="M0,825V0H1466.7V825Z"/></clipPath>
<clipPath id="c1_18"><path d="M1127,85.8V10.1h75.7V85.8Z"/></clipPath>
<clipPath id="c2_18"><path d="M0,275.7V237.1H1255.7v38.6Z"/></clipPath>
<clipPath id="c3_18"><path d="M1273.4,254.5V237.1h192.9v17.4Z"/></clipPath>
<style type="text/css"><![CDATA[
.g0_18{
fill: #3E3E3E;
}
.g1_18{
fill: none;
stroke: #2B5259;
stroke-width: 1.145;
stroke-linejoin: round;
}
.g2_18{
fill: #252525;
}
.g3_18{
fill: #4A66AC;
}
.g4_18{
fill: none;
stroke: #34497D;
stroke-width: 1.527;
stroke-linejoin: round;
}
.g5_18{
fill: #ACCBF9;
}
.g6_18{
fill: #00B050;
}
]]></style>
</defs>
<g clip-path="url(#c0_18)">
<path fill-rule="evenodd" d="M0,825H1466.7V0H0V825Z" class="g0_18"/>
<image preserveAspectRatio="none" x="0" y="0" width="1467" height="825" xlink:href="img/1.png"/>
<path d="M-4.1,100.1H1466.6" class="g1_18"/>
</g>
<image clip-path="url(#c1_18)" preserveAspectRatio="none" x="1127" y="10" width="76" height="76" xlink:href="img/2.png"/>
<image clip-path="url(#c2_18)" preserveAspectRatio="none" x="0" y="237" width="1256" height="39" xlink:href="img/3.png"/>
<image clip-path="url(#c3_18)" preserveAspectRatio="none" x="1273" y="237" width="193" height="17" xlink:href="img/4.png"/>
<path fill-rule="evenodd" d="M0,238H1255.7V73.3H0V238Z" class="g2_18"/>
<path fill-rule="evenodd" d="M1273.4,238h192.9V73.3H1273.4V238Z" class="g3_18"/>
<path fill-rule="evenodd" d="M80.5,543.8H494.6V473.4H80.5v70.4Z" class="g3_18"/>
<path d="M80.5,543.8H494.6V473.4H80.5v70.4Z" class="g4_18"/>
<path fill-rule="evenodd" d="M730.8,557.6c0,-11.4,9.2,-20.6,20.6,-20.6h633.9c11.4,0,20.7,9.2,20.7,20.6v82.7c0,11.4,-9.3,20.6,-20.7,20.6H751.4c-11.4,0,-20.6,-9.2,-20.6,-20.6Z" class="g5_18"/>
<path d="M730.8,557.6c0,-11.4,9.2,-20.6,20.6,-20.6h633.9c11.4,0,20.7,9.2,20.7,20.6v82.7c0,11.4,-9.3,20.6,-20.7,20.6H751.4c-11.4,0,-20.6,-9.2,-20.6,-20.6Z" class="g4_18"/>
<path fill-rule="evenodd" d="M730.8,417.9c0,-11.4,9.2,-20.6,20.6,-20.6h633.9c11.4,0,20.7,9.2,20.7,20.6v82.7c0,11.4,-9.3,20.6,-20.7,20.6H751.4c-11.4,0,-20.6,-9.2,-20.6,-20.6Z" class="g5_18"/>
<path d="M730.8,417.9c0,-11.4,9.2,-20.6,20.6,-20.6h633.9c11.4,0,20.7,9.2,20.7,20.6v82.7c0,11.4,-9.3,20.6,-20.7,20.6H751.4c-11.4,0,-20.6,-9.2,-20.6,-20.6Z" class="g4_18"/>
<path fill-rule="evenodd" d="M55.9,367.4H454.5V285.6H55.9v81.8Z" class="g6_18"/>
<path d="M55.9,367.4H454.5V285.6H55.9v81.8Z" class="g4_18"/>
<path fill-rule="evenodd" d="M753.7,500.1h257.6V418.4H753.7v81.7Z" class="g3_18"/>
<path d="M753.7,500.1h257.6V418.4H753.7v81.7Z" class="g4_18"/>
<path fill-rule="evenodd" d="M753.7,641.3h257.6v-82H753.7v82Z" class="g3_18"/>
<path d="M753.7,641.3h257.6v-82H753.7v82Z" class="g4_18"/>
<path d="M454.5,325.8l291.6,3.3v1.5L454.5,327.3Zm290.1,-.6l9.2,4.7l-9.3,4.5Z" class="g3_18"/>
<path fill-rule="evenodd" d="M728.2,288c0,-11.4,9.3,-20.7,20.7,-20.7h633.8c11.5,0,20.7,9.3,20.7,20.7v82.7c0,11.5,-9.2,20.7,-20.7,20.7H748.9c-11.4,0,-20.7,-9.2,-20.7,-20.7Z" class="g5_18"/>
<path d="M728.2,288c0,-11.4,9.3,-20.7,20.7,-20.7h633.8c11.5,0,20.7,9.3,20.7,20.7v82.7c0,11.5,-9.2,20.7,-20.7,20.7H748.9c-11.4,0,-20.7,-9.2,-20.7,-20.7Z" class="g4_18"/>
<path fill-rule="evenodd" d="M753.7,370.9h257.6v-82H753.7v82Z" class="g3_18"/>
<path d="M753.7,370.9h257.6v-82H753.7v82Z" class="g4_18"/>
<path d="M728.3,330.2l-1.3,.1h.1l-1.3,.3l-1.2,.4l-1.2,.6l-1.2,.8l-1.2,.9l-1.2,1l-1.1,1.3l-1.2,1.3l-1.2,1.5l-1.1,1.7l-1.1,1.7l-1.1,1.9l-1,2l-1,2.1l-1,2.2l-.9,2.4l-.9,2.4l-.9,2.4l-.8,2.6l-.7,2.6l-.7,2.7l-1.3,5.6l-1,5.8l-.4,2.9l-.3,3l-.3,3l-.2,3l-.1,3v6l.1,3l.2,3.1l.3,2.9l.4,3l.4,2.9l.6,2.9l.5,2.9l1.4,5.6l.8,2.6l.8,2.7l.9,2.6l.9,2.4l1,2.4l1,2.3l1.1,2.2L713,443l1.1,2.1l1.2,1.8l1.2,1.8l1.2,1.6l1.3,1.6l1.3,1.3l1.3,1.3l-.2,-.2l2.6,1.6l-.7,1.3l-2.6,-1.5q-.1,-.1,-.2,-.1l-1.3,-1.3l-1.4,-1.5l-1.3,-1.5l-1.3,-1.7L714,447.7l-1.2,-1.9l-1.2,-2l-1.1,-2.2l-1.1,-2.3l-1,-2.3l-1,-2.4l-1,-2.6l-.9,-2.6l-.8,-2.6l-.8,-2.8l-1.4,-5.6l-.5,-2.9l-.6,-2.9l-.4,-3l-.4,-3l-.3,-3l-.2,-3.1l-.1,-3l-.1,-3.1l.1,-3.1l.1,-3l.2,-3.1l.3,-3l.3,-3l.4,-3l1,-5.8l1.3,-5.6l.7,-2.8l.8,-2.7l.8,-2.5l.8,-2.6l.9,-2.4l1,-2.4l1,-2.2l1,-2.2l1.1,-2l1.1,-2l1.1,-1.8l1.2,-1.7l1.2,-1.6l1.3,-1.4l1.2,-1.3l1.3,-1.2l1.3,-.9l1.3,-.9l1.4,-.6l1.4,-.5l1.2,-.3q.1,0,.2,0l1.2,-.1Zm-4.4,121.5l6.9,7.6l-10.2,.9Z" class="g3_18"/>
<path d="M730.7,458.5l-1.3,.1c0,0,-.1,0,-.1,0l-1.3,.3l-1.4,.5l-1.3,.8l-1.4,.9l-1.3,1l-1.2,1.3l-1.3,1.3l-1.2,1.6l-1.2,1.7l-1.2,1.8l-1.1,2l-1.1,2l-1.1,2.2l-1.1,2.4l-.9,2.4l-1,2.5l-.9,2.6l-.9,2.7l-.8,2.8l-.8,2.9l-.7,2.9l-1.2,6.1l-1,6.3l-.4,3.2l-.4,3.2l-.2,3.2l-.2,3.3l-.2,3.3v6.6l.2,3.3l.2,3.2l.2,3.3l.4,3.2l.4,3.2l1,6.3l1.2,6l.7,3l.8,2.8l.8,2.8l.9,2.7l.9,2.7l1,2.5l.9,2.4l1.1,2.3l1.1,2.2l1.1,2.1l1.1,2l1.2,1.8l1.1,1.7l1.3,1.5l1.2,1.4q.1,.1,.2,.1l2,1.3l.8,-1.3l-2,-1.3l.2,.2l-1.2,-1.3L720.1,591l-1.2,-1.6l-1.1,-1.8l-1.1,-1.9l-1.1,-2l-1,-2.2l-1.1,-2.3l-.9,-2.3l-1,-2.5l-.9,-2.6l-.8,-2.7l-.8,-2.8l-.8,-2.8l-.7,-2.9l-1.2,-6l-1,-6.2l-.4,-3.1l-.4,-3.2l-.2,-3.3l-.2,-3.2l-.1,-3.2l-.1,-3.3l.1,-3.3l.1,-3.2l.2,-3.2l.2,-3.3L705,513l.4,-3.2l1,-6.2l1.2,-6l.7,-2.9l.8,-2.8l.8,-2.8l.8,-2.7l.9,-2.5l1,-2.5l.9,-2.4l1.1,-2.3l1,-2.1l1.1,-2.1l1.1,-1.9l1.1,-1.7l1.2,-1.7l1.1,-1.4l1.2,-1.4l1.2,-1.1l1.2,-1l1.2,-.8l1.2,-.6l1.2,-.5l1.3,-.3h-.2l1.3,-.1ZM720.5,599l10.3,-.1l-6.3,-8.1Z" class="g3_18"/>
<path d="M196.7,484.5V375h-1.5V484.5Zm3.9,-107.9L196,367.4l-4.6,9.2Z" class="g3_18"/>
</svg>