<?xml version="1.0" encoding="UTF-8" standalone="no"?>
<!DOCTYPE svg PUBLIC "-//W3C//DTD SVG 1.1//EN"
"http://www.w3.org/Graphics/SVG/1.1/DTD/svg11.dtd">
<svg viewBox="0 0 1466 825" version="1.1" xmlns="http://www.w3.org/2000/svg" xmlns:xlink="http://www.w3.org/1999/xlink">
<defs>
<clipPath id="c0_6"><path d="M0,825V0H1466.7V825Z"/></clipPath>
<clipPath id="c1_6"><path d="M1139.1,72.6V9h63.8V72.6Z"/></clipPath>
<clipPath id="c2_6"><path d="M0,275.7V237.1H1255.7v38.6Z"/></clipPath>
<clipPath id="c3_6"><path d="M1273.4,254.5V237.1h192.9v17.4Z"/></clipPath>
<clipPath id="c4_6"><path d="M125,391.8V313.5h78.3v78.3Z"/></clipPath>
<clipPath id="c5_6"><path d="M125,569.6V491.3h78.3v78.3Z"/></clipPath>
<clipPath id="c6_6"><path d="M125,747.5V669.2h78.3v78.3Z"/></clipPath>
<style type="text/css"><![CDATA[
.g0_6{
fill: none;
stroke: #30243C;
stroke-width: 1.145;
stroke-linejoin: round;
}
.g1_6{
fill: #252525;
}
.g2_6{
fill: #F07F09;
}
.g3_6{
fill: none;
stroke: #F07F09;
stroke-width: 1.145;
stroke-linejoin: round;
}
]]></style>
</defs>
<g clip-path="url(#c0_6)">
<image x="0" y="0" width="1467" height="825" xlink:href="shade/1.png"/>
<image preserveAspectRatio="none" x="0" y="0" width="1467" height="825" xlink:href="img/1.png"/>
<path d="M-4.1,100.1H1466.6" class="g0_6"/>
</g>
<image clip-path="url(#c1_6)" preserveAspectRatio="none" x="1139" y="9" width="64" height="64" xlink:href="img/2.png"/>
<image clip-path="url(#c2_6)" preserveAspectRatio="none" x="0" y="237" width="1256" height="39" xlink:href="img/3.png"/>
<image clip-path="url(#c3_6)" preserveAspectRatio="none" x="1273" y="237" width="193" height="17" xlink:href="img/4.png"/>
<path fill-rule="evenodd" d="M0,238H1255.7V73.3H0V238Z" class="g1_6"/>
<path fill-rule="evenodd" d="M1273.4,238h192.9V73.3H1273.4V238Z" class="g2_6"/>
<path fill-rule="evenodd" d="M81.9,295.6c0,-7.8,6.4,-14.2,14.3,-14.2h1128c7.8,0,14.2,6.4,14.2,14.2V409.5c0,7.8,-6.4,14.2,-14.2,14.2H96.2c-7.9,0,-14.3,-6.4,-14.3,-14.2Z" class="g2_6"/>
<path d="M81.9,295.6c0,-7.8,6.4,-14.2,14.3,-14.2h1128c7.8,0,14.2,6.4,14.2,14.2V409.5c0,7.8,-6.4,14.2,-14.2,14.2H96.2c-7.9,0,-14.3,-6.4,-14.3,-14.2Z" class="g3_6"/>
<g clip-path="url(#c4_6)">
<path d="M176.4,326.2H137.7v24.1h4.9V331h4.8v19.3h14.5v14.5H147.4v4.9h19.4V345.5H152.2V331h9.7v4.8h-4.8v4.9h9.7V331h9.6v-4.8Z" class="g2_6"/>
<path d="M181.3,326.2V331h4.8v4.8H171.6v14.5h4.8v-9.6h9.7v5.6h-4.8v4.8h4.8v13.7h-9.7V360h5.7v-4.8H171.6v14.5h14.5v4.8H142.6V360h14.5v-4.8H137.7v24.2H191V326.2h-9.7Z" class="g2_6"/>
</g>
<path fill-rule="evenodd" d="M81.9,474.6c0,-7.9,6.4,-14.2,14.3,-14.2h1128c7.8,0,14.2,6.3,14.2,14.2V588.4c0,7.8,-6.4,14.2,-14.2,14.2H96.2c-7.9,0,-14.3,-6.4,-14.3,-14.2Z" class="g2_6"/>
<g clip-path="url(#c5_6)">
<path d="M194.6,552.8l-10.1,-10c-1.4,-1.4,-3.2,-1.9,-5,-1.6L176,537.7c3.1,-4,5,-9.2,5,-14.7c0,-13.3,-10.9,-24.2,-24.2,-24.2c-13.4,0,-24.3,10.9,-24.3,24.2c0,13.3,10.9,24.2,24.3,24.2c5.4,0,10.5,-1.9,14.6,-5l3.6,3.5c-.3,1.8,.2,3.7,1.5,5l10.1,10.1c1.1,1.1,2.6,1.7,4.1,1.7c1.4,0,2.9,-.6,4,-1.7c2.1,-2.2,2.1,-5.8,-.1,-8ZM156.7,542.3c-10.7,0,-19.4,-8.7,-19.4,-19.4c0,-10.6,8.7,-19.3,19.4,-19.3c10.6,0,19.3,8.7,19.3,19.3c0,10.7,-8.7,19.4,-19.3,19.4Z" class="g2_6"/>
</g>
<path fill-rule="evenodd" d="M81.9,651.3c0,-7.8,6.4,-14.2,14.3,-14.2h1128c7.8,0,14.2,6.4,14.2,14.2v114c0,7.9,-6.4,14.2,-14.2,14.2H96.2c-7.9,0,-14.3,-6.3,-14.3,-14.2Z" class="g2_6"/>
<g clip-path="url(#c6_6)">
<path d="M186.9,684.2c0,3.6,-10.1,6.5,-22.6,6.5c-12.4,0,-22.6,-2.9,-22.6,-6.5c0,-3.5,10.2,-6.4,22.6,-6.4c12.5,0,22.6,2.9,22.6,6.4Z" class="g2_6"/>
<path d="M180.5,700.4c-1,0,-1.6,-.7,-1.6,-1.6c0,-1,.6,-1.7,1.6,-1.7c1,0,1.6,.7,1.6,1.7c0,.9,-.6,1.6,-1.6,1.6Zm-16.2,-6.5c-12.4,0,-22.6,-2.9,-22.6,-6.4v12.9c0,3.5,10.2,6.4,22.6,6.4c12.5,0,22.6,-2.9,22.6,-6.4V687.5c0,3.5,-10.1,6.4,-22.6,6.4Z" class="g2_6"/>
<path d="M180.5,716.5c-1,0,-1.6,-.7,-1.6,-1.6c0,-1,.6,-1.6,1.6,-1.6c1,0,1.6,.6,1.6,1.6c0,.9,-.6,1.6,-1.6,1.6ZM164.3,710c-12.4,0,-22.6,-2.9,-22.6,-6.4v12.9c0,3.5,10.2,6.4,22.6,6.4c12.5,0,22.6,-2.9,22.6,-6.4V703.6c0,3.5,-10.1,6.4,-22.6,6.4Z" class="g2_6"/>
<path d="M180.5,732.6c-1,0,-1.6,-.6,-1.6,-1.6c0,-1,.6,-1.6,1.6,-1.6c1,0,1.6,.6,1.6,1.6c0,1,-.6,1.6,-1.6,1.6Zm-16.2,-6.4c-12.4,0,-22.6,-2.9,-22.6,-6.5v12.9c0,3.5,10.2,6.4,22.6,6.4c12.5,0,22.6,-2.9,22.6,-6.4V719.7c0,3.6,-10.1,6.5,-22.6,6.5Z" class="g2_6"/>
</g>
</svg>