<?xml version="1.0" encoding="UTF-8" standalone="no"?>
<!DOCTYPE svg PUBLIC "-//W3C//DTD SVG 1.1//EN"
"http://www.w3.org/Graphics/SVG/1.1/DTD/svg11.dtd">
<svg viewBox="0 0 1466 825" version="1.1" xmlns="http://www.w3.org/2000/svg" xmlns:xlink="http://www.w3.org/1999/xlink">
<defs>
<clipPath id="c0_10"><path d="M0,825V0H1466.7V825Z"/></clipPath>
<clipPath id="c1_10"><path d="M1139.1,72.6V9h63.8V72.6Z"/></clipPath>
<clipPath id="c2_10"><path d="M0,275.7V237.1H1255.7v38.6Z"/></clipPath>
<clipPath id="c3_10"><path d="M1273.4,254.5V237.1h192.9v17.4Z"/></clipPath>
<style type="text/css"><![CDATA[
.g0_10{
fill: none;
stroke: #30243C;
stroke-width: 1.145;
stroke-linejoin: round;
}
.g1_10{
fill: #252525;
}
.g2_10{
fill: #F07F09;
}
.g3_10{
fill: #F9D8CC;
}
.g4_10{
fill: #FCECE7;
}
.g5_10{
fill: none;
stroke: #FFF;
stroke-width: 1.527;
stroke-linejoin: round;
}
.g6_10{
fill: none;
stroke: #FFF;
stroke-width: 4.583;
stroke-linejoin: round;
}
]]></style>
</defs>
<g clip-path="url(#c0_10)">
<image x="0" y="0" width="1467" height="825" xlink:href="shade/1.png"/>
<image preserveAspectRatio="none" x="0" y="0" width="1467" height="825" xlink:href="img/1.png"/>
<path d="M-4.1,100.1H1466.6" class="g0_10"/>
</g>
<image clip-path="url(#c1_10)" preserveAspectRatio="none" x="1139" y="9" width="64" height="64" xlink:href="img/2.png"/>
<image clip-path="url(#c2_10)" preserveAspectRatio="none" x="0" y="237" width="1256" height="39" xlink:href="img/3.png"/>
<image clip-path="url(#c3_10)" preserveAspectRatio="none" x="1273" y="237" width="193" height="17" xlink:href="img/4.png"/>
<path fill-rule="evenodd" d="M0,238H1255.7V73.3H0V238Z" class="g1_10"/>
<path fill-rule="evenodd" d="M1273.4,238h192.9V73.3H1273.4V238Z" class="g2_10"/>
<path fill-rule="evenodd" d="M81.9,325.7H467.4V281.1H81.9v44.6Z" class="g2_10"/>
<path fill-rule="evenodd" d="M467.4,325.7H852.9V281.1H467.4v44.6Z" class="g2_10"/>
<path fill-rule="evenodd" d="M852.9,325.7h385.5V281.1H852.9v44.6Z" class="g2_10"/>
<path fill-rule="evenodd" d="M81.9,370.3H467.4V325.7H81.9v44.6Z" class="g3_10"/>
<path fill-rule="evenodd" d="M467.4,370.3H852.9V325.7H467.4v44.6Z" class="g3_10"/>
<path fill-rule="evenodd" d="M852.9,370.3h385.5V325.7H852.9v44.6Z" class="g3_10"/>
<path fill-rule="evenodd" d="M81.9,480.3H467.4v-110H81.9v110Z" class="g4_10"/>
<path fill-rule="evenodd" d="M467.4,480.3H852.9v-110H467.4v110Z" class="g4_10"/>
<path fill-rule="evenodd" d="M852.9,480.3h385.5v-110H852.9v110Z" class="g4_10"/>
<path fill-rule="evenodd" d="M81.9,557.3H467.4v-77H81.9v77Z" class="g3_10"/>
<path fill-rule="evenodd" d="M467.4,557.3H852.9v-77H467.4v77Z" class="g3_10"/>
<path fill-rule="evenodd" d="M852.9,557.3h385.5v-77H852.9v77Z" class="g3_10"/>
<path fill-rule="evenodd" d="M81.9,634.3H467.4v-77H81.9v77Z" class="g4_10"/>
<path fill-rule="evenodd" d="M467.4,634.3H852.9v-77H467.4v77Z" class="g4_10"/>
<path fill-rule="evenodd" d="M852.9,634.3h385.5v-77H852.9v77Z" class="g4_10"/>
<path d="M467.4,280.3V635.1M852.9,280.3V635.1" class="g5_10"/>
<path d="M81.2,325.7h1158" class="g6_10"/>
<path d="M81.2,370.3h1158m-1158,110h1158m-1158,77h1158M81.9,280.3V635.1M1238.4,280.3V635.1M81.2,281.1h1158M81.2,634.3h1158" class="g5_10"/>
</svg>