<?xml version="1.0" encoding="UTF-8" standalone="no"?>
<!DOCTYPE svg PUBLIC "-//W3C//DTD SVG 1.1//EN"
"http://www.w3.org/Graphics/SVG/1.1/DTD/svg11.dtd">
<svg viewBox="0 0 1466 825" version="1.1" xmlns="http://www.w3.org/2000/svg" xmlns:xlink="http://www.w3.org/1999/xlink">
<defs>
<clipPath id="c0_10"><path d="M0,825V0H1466.7V825Z"/></clipPath>
<clipPath id="c1_10"><path d="M1120.2,84.3V8.4h75.7V84.3Z"/></clipPath>
<clipPath id="c2_10"><path d="M0,275.7V237.1H1255.7v38.6Z"/></clipPath>
<clipPath id="c3_10"><path d="M1273.4,254.5V237.1h192.9v17.4Z"/></clipPath>
<clipPath id="c4_10"><path d="M623.5,504.3V267.9h806.3V504.3Z"/></clipPath>
<style type="text/css"><![CDATA[
.g0_10{
fill: none;
stroke: #30243C;
stroke-width: 1.145;
stroke-linejoin: round;
}
.g1_10{
fill: #252525;
}
.g2_10{
fill: #F07F09;
}
.g3_10{
fill: #1B587C;
}
.g4_10{
fill: none;
stroke: #1B587C;
stroke-width: 1.527;
stroke-linejoin: round;
}
]]></style>
</defs>
<g clip-path="url(#c0_10)">
<image x="0" y="0" width="1467" height="825" xlink:href="shade/1.png"/>
<image preserveAspectRatio="none" x="0" y="0" width="1467" height="825" xlink:href="img/1.png"/>
<path d="M-4.1,100.1H1466.6" class="g0_10"/>
</g>
<image clip-path="url(#c1_10)" preserveAspectRatio="none" x="1120" y="8" width="76" height="76" xlink:href="img/2.png"/>
<image clip-path="url(#c2_10)" preserveAspectRatio="none" x="0" y="237" width="1256" height="39" xlink:href="img/3.png"/>
<image clip-path="url(#c3_10)" preserveAspectRatio="none" x="1273" y="237" width="193" height="17" xlink:href="img/4.png"/>
<path fill-rule="evenodd" d="M0,238H1255.7V73.3H0V238Z" class="g1_10"/>
<path fill-rule="evenodd" d="M1273.4,238h192.9V73.3H1273.4V238Z" class="g2_10"/>
<path fill-rule="evenodd" d="M777.1,634H986.5V530.6H777.1V634Z" class="g3_10"/>
<path d="M777.1,634H986.5V530.6H777.1V634Z" class="g4_10"/>
<path fill-rule="evenodd" d="M1168.4,669.2h198.3V575.3H1168.4v93.9Z" class="g3_10"/>
<path d="M1168.4,669.2h198.3V575.3H1168.4v93.9Z" class="g4_10"/>
<path d="M986.5,613.2h90.9c.5,0,.8,.4,.8,.8v12.6l-.8,-.7h83.4v1.5h-83.4c-.4,0,-.7,-.3,-.7,-.8V614l.7,.7H986.5Zm172.7,8.9l9.2,4.5l-9.2,4.6Z" class="g2_10"/>
<image clip-path="url(#c4_10)" preserveAspectRatio="none" x="624" y="268" width="806" height="236" xlink:href="img/5.jpg"/>
</svg>