<?xml version="1.0" encoding="UTF-8" standalone="no"?>
<!DOCTYPE svg PUBLIC "-//W3C//DTD SVG 1.1//EN"
"http://www.w3.org/Graphics/SVG/1.1/DTD/svg11.dtd">
<svg viewBox="0 0 1466 825" version="1.1" xmlns="http://www.w3.org/2000/svg" xmlns:xlink="http://www.w3.org/1999/xlink">
<defs>
<clipPath id="c0_16"><path d="M0,825V0H1466.7V825Z"/></clipPath>
<clipPath id="c1_16"><path d="M1127,85.8V10.1h75.7V85.8Z"/></clipPath>
<clipPath id="c2_16"><path d="M0,275.7V237.1H1255.7v38.6Z"/></clipPath>
<clipPath id="c3_16"><path d="M1273.4,254.5V237.1h192.9v17.4Z"/></clipPath>
<clipPath id="c4_16"><path d="M293.2,322.7v-110h110v110Z"/></clipPath>
<clipPath id="c5_16"><path d="M851.8,331.8v-110h110v110Z"/></clipPath>
<style type="text/css"><![CDATA[
.g0_16{
fill: #3E3E3E;
}
.g1_16{
fill: none;
stroke: #2B5259;
stroke-width: 1.145;
stroke-linejoin: round;
}
.g2_16{
fill: #252525;
}
.g3_16{
fill: #FFF;
}
.g4_16{
fill: none;
stroke: #4A66AC;
stroke-width: 1.512;
stroke-miterlimit: 10;
}
.g5_16{
fill: #4A66AC;
}
]]></style>
</defs>
<g clip-path="url(#c0_16)">
<path fill-rule="evenodd" d="M0,825H1466.7V0H0V825Z" class="g0_16"/>
<image preserveAspectRatio="none" x="0" y="0" width="1467" height="825" xlink:href="img/1.png"/>
<path d="M-4.1,100.1H1466.6" class="g1_16"/>
</g>
<image clip-path="url(#c1_16)" preserveAspectRatio="none" x="1127" y="10" width="76" height="76" xlink:href="img/2.png"/>
<image clip-path="url(#c2_16)" preserveAspectRatio="none" x="0" y="237" width="1256" height="39" xlink:href="img/3.png"/>
<image clip-path="url(#c3_16)" preserveAspectRatio="none" x="1273" y="237" width="193" height="17" xlink:href="img/4.png"/>
<path fill-rule="evenodd" d="M0,238H1255.7V73.3H0V238Z" class="g2_16"/>
<path fill-rule="evenodd" d="M1273.4,238h192.9V73.3H1273.4V238Z" class="g5_16"/>
<g clip-path="url(#c4_16)">
<path d="M307.6,281.4c-.7,0,-1.2,.5,-1.2,1.2c0,.6,.5,1.1,1.2,1.1h38l-20.1,20.1c-.5,.5,-.4,1.2,0,1.6c.4,.5,1.1,.5,1.6,0l20.1,-20.1h.1v23.3c0,.6,.5,1.1,1.1,1.1c.6,0,1.1,-.5,1.1,-1.1V285.3l20.2,20.1c.5,.5,1.2,.5,1.6,0c.4,-.4,.4,-1.1,0,-1.6L351.1,283.7h38.1c.6,0,1.1,-.5,1.1,-1.1c0,-.7,-.5,-1.2,-1.1,-1.2h-4.5V235h4.5c.6,0,1.1,-.5,1.1,-1.1c0,-.7,-.5,-1.2,-1.1,-1.2H349.5v-4.5c0,-.6,-.5,-1.1,-1.1,-1.1c-.6,0,-1.1,.5,-1.1,1.1v4.5H307.6c-.7,0,-1.2,.5,-1.2,1.2c0,.6,.5,1.1,1.2,1.1h4.5v46.4ZM314.4,235h68v46.4h-68Z" class="g3_16"/>
<path d="M307.6,281.4c-.7,0,-1.2,.5,-1.2,1.2c0,.6,.5,1.1,1.2,1.1h38l-20.1,20.1c-.5,.5,-.4,1.2,0,1.6c.4,.5,1.1,.5,1.6,0l20.1,-20.1h.1v23.3c0,.6,.5,1.1,1.1,1.1c.6,0,1.1,-.5,1.1,-1.1V285.3l20.2,20.1c.5,.5,1.2,.5,1.6,0c.4,-.4,.4,-1.1,0,-1.6L351.1,283.7h38.1c.6,0,1.1,-.5,1.1,-1.1c0,-.7,-.5,-1.2,-1.1,-1.2h-4.5V235h4.5c.6,0,1.1,-.5,1.1,-1.1c0,-.7,-.5,-1.2,-1.1,-1.2H349.5v-4.5c0,-.6,-.5,-1.1,-1.1,-1.1c-.6,0,-1.1,.5,-1.1,1.1v4.5H307.6c-.7,0,-1.2,.5,-1.2,1.2c0,.6,.5,1.1,1.2,1.1h4.5v46.4ZM314.4,235h68v46.4h-68Z" class="g4_16"/>
<path d="M354.1,244H342.7v6.8h11.4Zm-2.3,4.6H345v-2.3h6.8Z" class="g3_16"/>
<path d="M354.1,244H342.7v6.8h11.4Zm-2.3,4.6H345v-2.3h6.8Z" class="g4_16"/>
<path d="M325.7,273.5H337v-6.8H325.7ZM328,269h6.8v2.2H328Z" class="g3_16"/>
<path d="M325.7,273.5H337v-6.8H325.7ZM328,269h6.8v2.2H328Z" class="g4_16"/>
<path d="M354.1,266.7H342.7v6.8h11.4Zm-2.3,4.5H345V269h6.8Z" class="g3_16"/>
<path d="M354.1,266.7H342.7v6.8h11.4Zm-2.3,4.5H345V269h6.8Z" class="g4_16"/>
<path d="M359.7,273.5h11.4v-6.8H359.7ZM362,269h6.8v2.2H362Z" class="g3_16"/>
<path d="M359.7,273.5h11.4v-6.8H359.7ZM362,269h6.8v2.2H362Z" class="g4_16"/>
<path d="M332.5,259.9h14.8v5.7h2.2v-5.7h14.8v5.7h2.2v-8h-17V252h-2.2v5.6H330.2v8h2.3v-5.7Z" class="g3_16"/>
<path d="M332.5,259.9h14.8v5.7h2.2v-5.7h14.8v5.7h2.2v-8h-17V252h-2.2v5.6H330.2v8h2.3v-5.7Z" class="g4_16"/>
</g>
<g clip-path="url(#c5_16)">
<path d="M909.7,269.1l9.3,9.2c2.3,-2.6,3.6,-5.8,3.9,-9.2Z" class="g3_16"/>
<path d="M909.7,269.1l9.3,9.2c2.3,-2.6,3.6,-5.8,3.9,-9.2Z" class="g4_16"/>
<path d="M905.9,268.4V252.1c-8.8,.6,-15.4,8.2,-14.8,16.9c.6,8.8,8.2,15.4,16.9,14.8c3.5,-.3,6.8,-1.6,9.4,-3.9Z" class="g3_16"/>
<path d="M905.9,268.4V252.1c-8.8,.6,-15.4,8.2,-14.8,16.9c.6,8.8,8.2,15.4,16.9,14.8c3.5,-.3,6.8,-1.6,9.4,-3.9Z" class="g4_16"/>
<path d="M908.1,266.8h14.8c-.6,-7.9,-6.9,-14.1,-14.8,-14.7Z" class="g3_16"/>
<path d="M908.1,266.8h14.8c-.6,-7.9,-6.9,-14.1,-14.8,-14.7Z" class="g4_16"/>
<path d="M938.8,247.6v40.7H875.3V247.6Zm9,43h-2.2V244.2h2.2c1.3,0,2.3,-1.1,2.3,-2.3c0,-1.3,-1,-2.3,-2.3,-2.3H909.3v-2.2c0,-1.3,-1,-2.3,-2.3,-2.3c-1.2,0,-2.3,1,-2.3,2.3v2.2H866.2c-1.3,0,-2.3,1,-2.3,2.3c0,1.2,1,2.3,2.3,2.3h2.2v46.4h-2.2c-1.3,0,-2.3,1,-2.3,2.3c0,1.2,1,2.2,2.3,2.2h34.6l-17.5,17.5c-.8,.9,-.8,2.3,.1,3.2c.9,.9,2.3,.9,3.2,0l18.1,-18.2v20.2c0,1.2,1.1,2.2,2.3,2.2c1.3,0,2.3,-1,2.3,-2.2V297.6l18.1,18.1c.9,.9,2.3,.9,3.2,0c.9,-.9,.9,-2.3,0,-3.2L913.2,295.1h34.6c1.3,0,2.3,-1,2.3,-2.2c0,-1.3,-1,-2.3,-2.3,-2.3Z" class="g3_16"/>
<path d="M938.8,247.6v40.7H875.3V247.6Zm9,43h-2.2V244.2h2.2c1.3,0,2.3,-1.1,2.3,-2.3c0,-1.3,-1,-2.3,-2.3,-2.3H909.3v-2.2c0,-1.3,-1,-2.3,-2.3,-2.3c-1.2,0,-2.3,1,-2.3,2.3v2.2H866.2c-1.3,0,-2.3,1,-2.3,2.3c0,1.2,1,2.3,2.3,2.3h2.2v46.4h-2.2c-1.3,0,-2.3,1,-2.3,2.3c0,1.2,1,2.2,2.3,2.2h34.6l-17.5,17.5c-.8,.9,-.8,2.3,.1,3.2c.9,.9,2.3,.9,3.2,0l18.1,-18.2v20.2c0,1.2,1.1,2.2,2.3,2.2c1.3,0,2.3,-1,2.3,-2.2V297.6l18.1,18.1c.9,.9,2.3,.9,3.2,0c.9,-.9,.9,-2.3,0,-3.2L913.2,295.1h34.6c1.3,0,2.3,-1,2.3,-2.2c0,-1.3,-1,-2.3,-2.3,-2.3Z" class="g4_16"/>
</g>
</svg>