<?xml version="1.0" encoding="UTF-8" standalone="no"?>
<!DOCTYPE svg PUBLIC "-//W3C//DTD SVG 1.1//EN"
"http://www.w3.org/Graphics/SVG/1.1/DTD/svg11.dtd">
<svg viewBox="0 0 1466 825" version="1.1" xmlns="http://www.w3.org/2000/svg" xmlns:xlink="http://www.w3.org/1999/xlink">
<defs>
<clipPath id="c0_7"><path d="M0,825V0H1466.7V825Z"/></clipPath>
<clipPath id="c1_7"><path d="M1171.1,90.6V.7H1446V90.6Z"/></clipPath>
<clipPath id="c2_7"><path d="M0,275.7V237.1H1255.7v38.6Z"/></clipPath>
<clipPath id="c3_7"><path d="M1273.4,254.5V237.1h192.9v17.4Z"/></clipPath>
<style type="text/css"><![CDATA[
.g0_7{
fill: none;
stroke: #30243C;
stroke-width: 1.145;
stroke-linejoin: round;
}
.g1_7{
fill: #252525;
}
.g2_7{
fill: #F07F09;
}
.g3_7{
fill: #F9D8CC;
}
.g4_7{
fill: #FCECE7;
}
.g5_7{
fill: none;
stroke: #FFF;
stroke-width: 1.527;
stroke-linejoin: round;
}
.g6_7{
fill: none;
stroke: #FFF;
stroke-width: 4.583;
stroke-linejoin: round;
}
]]></style>
</defs>
<g clip-path="url(#c0_7)">
<image x="0" y="0" width="1467" height="825" xlink:href="shade/1.png"/>
<image preserveAspectRatio="none" x="0" y="0" width="1467" height="825" xlink:href="img/1.png"/>
<path d="M-4.1,100.1H1466.6" class="g0_7"/>
</g>
<image clip-path="url(#c1_7)" preserveAspectRatio="none" x="1171" y="1" width="275" height="90" xlink:href="img/2.png"/>
<image clip-path="url(#c2_7)" preserveAspectRatio="none" x="0" y="237" width="1256" height="39" xlink:href="img/3.png"/>
<image clip-path="url(#c3_7)" preserveAspectRatio="none" x="1273" y="237" width="193" height="17" xlink:href="img/4.png"/>
<path fill-rule="evenodd" d="M0,238H1255.7V73.3H0V238Z" class="g1_7"/>
<path fill-rule="evenodd" d="M1273.4,238h192.9V73.3H1273.4V238Z" class="g2_7"/>
<path fill-rule="evenodd" d="M103.2,327.7H533.7V278.9H103.2v48.8Z" class="g2_7"/>
<path fill-rule="evenodd" d="M533.7,327.7h537V278.9h-537v48.8Z" class="g2_7"/>
<path fill-rule="evenodd" d="M103.2,448.1H533.7V327.7H103.2V448.1Z" class="g3_7"/>
<path fill-rule="evenodd" d="M533.7,448.1h537V327.7h-537V448.1Z" class="g3_7"/>
<path fill-rule="evenodd" d="M103.2,496.8H533.7V448H103.2v48.8Z" class="g4_7"/>
<path fill-rule="evenodd" d="M533.7,496.8h537V448h-537v48.8Z" class="g4_7"/>
<path fill-rule="evenodd" d="M103.2,581.1H533.7V496.8H103.2v84.3Z" class="g3_7"/>
<path fill-rule="evenodd" d="M533.7,581.1h537V496.8h-537v84.3Z" class="g3_7"/>
<path fill-rule="evenodd" d="M103.2,629.9H533.7V581.1H103.2v48.8Z" class="g4_7"/>
<path fill-rule="evenodd" d="M533.7,629.9h537V581.1h-537v48.8Z" class="g4_7"/>
<path d="M533.7,278.2V630.7" class="g5_7"/>
<path d="M102.5,327.7h968.9" class="g6_7"/>
<path d="M102.5,448.1h968.9M102.5,496.8h968.9M102.5,581.1h968.9M103.2,278.2V630.7M1070.7,278.2V630.7M102.5,278.9h968.9m-968.9,351h968.9" class="g5_7"/>
</svg>