<?xml version="1.0" encoding="UTF-8" standalone="no"?>
<!DOCTYPE svg PUBLIC "-//W3C//DTD SVG 1.1//EN"
"http://www.w3.org/Graphics/SVG/1.1/DTD/svg11.dtd">
<svg viewBox="0 0 1466 825" version="1.1" xmlns="http://www.w3.org/2000/svg" xmlns:xlink="http://www.w3.org/1999/xlink">
<defs>
<clipPath id="c0_30"><path d="M0,825V0H1466.7V825Z"/></clipPath>
<clipPath id="c1_30"><path d="M1127,85.8V10.1h75.7V85.8Z"/></clipPath>
<style type="text/css"><![CDATA[
.g0_30{
fill: #3E3E3E;
}
.g1_30{
fill: none;
stroke: #2B5259;
stroke-width: 1.145;
stroke-linejoin: round;
}
.g2_30{
fill: #4A66AC;
}
.g3_30{
fill: none;
stroke: #374D81;
stroke-width: 1.145;
stroke-linejoin: round;
}
.g4_30{
fill: #9454C3;
}
]]></style>
</defs>
<g clip-path="url(#c0_30)">
<path fill-rule="evenodd" d="M0,825H1466.7V0H0V825Z" class="g0_30"/>
<image preserveAspectRatio="none" x="0" y="0" width="1467" height="825" xlink:href="img/1.png"/>
<path d="M-4.1,100.1H1466.6" class="g1_30"/>
</g>
<image clip-path="url(#c1_30)" preserveAspectRatio="none" x="1127" y="10" width="76" height="76" xlink:href="img/2.png"/>
<path fill-rule="evenodd" d="M53.7,471H1409.1V214.5H53.7V471Z" class="g2_30"/>
<path d="M53.7,471H1409.1V214.5H53.7V471Z" class="g3_30"/>
<path fill-rule="evenodd" d="M53.5,714.1H1408.9V458H53.5V714.1Z" class="g2_30"/>
<path d="M53.5,714.1H1408.9V458H53.5V714.1Z" class="g3_30"/>
<path fill-rule="evenodd" d="M151.3,663.1H1383.8v1.8H151.3Z" class="g4_30"/>
<path fill-rule="evenodd" d="M151.3,697.9H820.8v1.9H151.3Z" class="g4_30"/>
</svg>