<?xml version="1.0" encoding="UTF-8" standalone="no"?>
<!DOCTYPE svg PUBLIC "-//W3C//DTD SVG 1.1//EN"
"http://www.w3.org/Graphics/SVG/1.1/DTD/svg11.dtd">
<svg viewBox="0 0 1466 825" version="1.1" xmlns="http://www.w3.org/2000/svg" xmlns:xlink="http://www.w3.org/1999/xlink">
<defs>
<clipPath id="c0_3"><path d="M0,825V0H1466.7V825Z"/></clipPath>
<clipPath id="c1_3"><path d="M1139.1,72.6V9h63.8V72.6Z"/></clipPath>
<clipPath id="c2_3"><path d="M0,275.7V237.1H1255.7v38.6Z"/></clipPath>
<clipPath id="c3_3"><path d="M1273.4,254.5V237.1h192.9v17.4Z"/></clipPath>
<style type="text/css"><![CDATA[
.g0_3{
fill: none;
stroke: #30243C;
stroke-width: 1.145;
stroke-linejoin: round;
}
.g1_3{
fill: #252525;
}
.g2_3{
fill: #F07F09;
}
.g3_3{
fill: #1B587C;
}
.g4_3{
fill: none;
stroke: #113E59;
stroke-width: 1.527;
stroke-linejoin: round;
}
.g5_3{
fill: none;
stroke: #B05C05;
stroke-width: 1.527;
stroke-linejoin: round;
}
]]></style>
</defs>
<g clip-path="url(#c0_3)">
<image x="0" y="0" width="1467" height="825" xlink:href="shade/1.png"/>
<image preserveAspectRatio="none" x="0" y="0" width="1467" height="825" xlink:href="img/1.png"/>
<path d="M-4.1,100.1H1466.6" class="g0_3"/>
</g>
<image clip-path="url(#c1_3)" preserveAspectRatio="none" x="1139" y="9" width="64" height="64" xlink:href="img/2.png"/>
<image clip-path="url(#c2_3)" preserveAspectRatio="none" x="0" y="237" width="1256" height="39" xlink:href="img/3.png"/>
<image clip-path="url(#c3_3)" preserveAspectRatio="none" x="1273" y="237" width="193" height="17" xlink:href="img/4.png"/>
<path fill-rule="evenodd" d="M0,238H1255.7V73.3H0V238Z" class="g1_3"/>
<path fill-rule="evenodd" d="M1273.4,238h192.9V73.3H1273.4V238Z" class="g2_3"/>
<path fill-rule="evenodd" d="M1027.8,530.6c0,-10.4,8.3,-18.7,18.7,-18.7H1362c10.3,0,18.7,8.3,18.7,18.7v74.8c0,10.3,-8.4,18.7,-18.7,18.7H1046.5c-10.4,0,-18.7,-8.4,-18.7,-18.7Z" class="g3_3"/>
<path d="M1027.8,530.6c0,-10.4,8.3,-18.7,18.7,-18.7H1362c10.3,0,18.7,8.3,18.7,18.7v74.8c0,10.3,-8.4,18.7,-18.7,18.7H1046.5c-10.4,0,-18.7,-8.4,-18.7,-18.7Z" class="g4_3"/>
<path fill-rule="evenodd" d="M1061.9,618.8c0,-10.6,8.5,-19.1,19,-19.1h244.8c10.5,0,19.1,8.5,19.1,19.1V695c0,10.5,-8.6,19.1,-19.1,19.1H1080.9c-10.5,0,-19,-8.6,-19,-19.1Z" class="g2_3"/>
<path d="M1061.9,618.8c0,-10.6,8.5,-19.1,19,-19.1h244.8c10.5,0,19.1,8.5,19.1,19.1V695c0,10.5,-8.6,19.1,-19.1,19.1H1080.9c-10.5,0,-19,-8.6,-19,-19.1Z" class="g5_3"/>
<path fill-rule="evenodd" d="M1026.9,345.9c0,-10.3,8.3,-18.6,18.6,-18.6h315.6c10.3,0,18.7,8.3,18.7,18.6v74.7c0,10.3,-8.4,18.7,-18.7,18.7H1045.5c-10.3,0,-18.6,-8.4,-18.6,-18.7Z" class="g3_3"/>
<path d="M1026.9,345.9c0,-10.3,8.3,-18.6,18.6,-18.6h315.6c10.3,0,18.7,8.3,18.7,18.6v74.7c0,10.3,-8.4,18.7,-18.7,18.7H1045.5c-10.3,0,-18.6,-8.4,-18.6,-18.7Z" class="g4_3"/>
<path d="M1203.4,511.9l-.8,-65h1.5l.9,65Zm-4.6,-63.4l4.4,-9.2l4.7,9.1Z" class="g2_3"/>
<path d="M1117.3,439.3v65h-1.6v-65Zm3.8,63.4l-4.6,9.2l-4.6,-9.2Z" class="g2_3"/>
</svg>