<?xml version="1.0" encoding="UTF-8" standalone="no"?>
<!DOCTYPE svg PUBLIC "-//W3C//DTD SVG 1.1//EN"
"http://www.w3.org/Graphics/SVG/1.1/DTD/svg11.dtd">
<svg viewBox="0 0 1466 825" version="1.1" xmlns="http://www.w3.org/2000/svg" xmlns:xlink="http://www.w3.org/1999/xlink">
<defs>
<clipPath id="c0_2"><path d="M0,825V0H1466.7V825Z"/></clipPath>
<clipPath id="c1_2"><path d="M1127,85.8V10.1h75.7V85.8Z"/></clipPath>
<clipPath id="c2_2"><path d="M0,275.7V237.1H1255.7v38.6Z"/></clipPath>
<clipPath id="c3_2"><path d="M1273.4,254.5V237.1h192.9v17.4Z"/></clipPath>
<style type="text/css"><![CDATA[
.g0_2{
fill: #3E3E3E;
}
.g1_2{
fill: none;
stroke: #2B5259;
stroke-width: 1.145;
stroke-linejoin: round;
}
.g2_2{
fill: #252525;
}
.g3_2{
fill: #4A66AC;
}
.g4_2{
fill: #ACCBF9;
}
.g5_2{
fill: none;
stroke: #FFF;
stroke-width: 1.527;
stroke-linejoin: round;
}
]]></style>
</defs>
<g clip-path="url(#c0_2)">
<path fill-rule="evenodd" d="M0,825H1466.7V0H0V825Z" class="g0_2"/>
<image preserveAspectRatio="none" x="0" y="0" width="1467" height="825" xlink:href="img/1.png"/>
<path d="M-4.1,100.1H1466.6" class="g1_2"/>
</g>
<image clip-path="url(#c1_2)" preserveAspectRatio="none" x="1127" y="10" width="76" height="76" xlink:href="img/2.png"/>
<image clip-path="url(#c2_2)" preserveAspectRatio="none" x="0" y="237" width="1256" height="39" xlink:href="img/3.png"/>
<image clip-path="url(#c3_2)" preserveAspectRatio="none" x="1273" y="237" width="193" height="17" xlink:href="img/4.png"/>
<path fill-rule="evenodd" d="M0,238H1255.7V73.3H0V238Z" class="g2_2"/>
<path fill-rule="evenodd" d="M1273.4,238h192.9V73.3H1273.4V238Z" class="g3_2"/>
<path fill-rule="evenodd" d="M55.7,549.1H693.9v-308H55.7v308Z" class="g4_2"/>
<path fill-rule="evenodd" d="M693.9,549.1H1411v-308H693.9v308Z" class="g4_2"/>
<path fill-rule="evenodd" d="M55.7,725.1H693.9v-176H55.7v176Z" class="g4_2"/>
<path fill-rule="evenodd" d="M693.9,725.1H1411v-176H693.9v176Z" class="g4_2"/>
<path d="M693.9,240.3V725.8M54.9,549.1H1411.8M55.7,240.3V725.8M1411,240.3V725.8M54.9,241.1H1411.8M54.9,725.1H1411.8" class="g5_2"/>
</svg>