<?xml version="1.0" encoding="UTF-8" standalone="no"?>
<!DOCTYPE svg PUBLIC "-//W3C//DTD SVG 1.1//EN"
"http://www.w3.org/Graphics/SVG/1.1/DTD/svg11.dtd">
<svg viewBox="0 0 1466 825" version="1.1" xmlns="http://www.w3.org/2000/svg" xmlns:xlink="http://www.w3.org/1999/xlink">
<defs>
<clipPath id="c0_11"><path d="M0,825V0H1466.7V825Z"/></clipPath>
<clipPath id="c1_11"><path d="M1127,85.8V10.1h75.7V85.8Z"/></clipPath>
<clipPath id="c2_11"><path d="M0,275.7V237.1H1255.7v38.6Z"/></clipPath>
<clipPath id="c3_11"><path d="M1273.4,254.5V237.1h192.9v17.4Z"/></clipPath>
<clipPath id="c4_11"><path d="M323.2,471c-52.4,0,-95,-42.5,-95,-95c0,-52.4,42.6,-95,95,-95c52.5,0,95,42.6,95,95c0,52.5,-42.5,95,-95,95Z"/></clipPath>
<clipPath id="c5_11"><path d="M323.2,714.1c-52.4,0,-95,-42.5,-95,-95c0,-52.4,42.6,-94.9,95,-94.9c52.5,0,95,42.5,95,94.9c0,52.5,-42.5,95,-95,95Z"/></clipPath>
<style type="text/css"><![CDATA[
.g0_11{
fill: #3E3E3E;
}
.g1_11{
fill: none;
stroke: #2B5259;
stroke-width: 1.145;
stroke-linejoin: round;
}
.g2_11{
fill: #252525;
}
.g3_11{
fill: #4A66AC;
}
.g4_11{
fill: #FFF;
}
.g5_11{
fill: none;
stroke: #4A66AC;
stroke-width: 2.284;
stroke-linejoin: round;
}
.g6_11{
fill: none;
stroke: #425C9B;
stroke-width: 1.527;
stroke-linejoin: round;
}
]]></style>
</defs>
<g clip-path="url(#c0_11)">
<path fill-rule="evenodd" d="M0,825H1466.7V0H0V825Z" class="g0_11"/>
<image preserveAspectRatio="none" x="0" y="0" width="1467" height="825" xlink:href="img/1.png"/>
<path d="M-4.1,100.1H1466.6" class="g1_11"/>
</g>
<image clip-path="url(#c1_11)" preserveAspectRatio="none" x="1127" y="10" width="76" height="76" xlink:href="img/2.png"/>
<image clip-path="url(#c2_11)" preserveAspectRatio="none" x="0" y="237" width="1256" height="39" xlink:href="img/3.png"/>
<image clip-path="url(#c3_11)" preserveAspectRatio="none" x="1273" y="237" width="193" height="17" xlink:href="img/4.png"/>
<path fill-rule="evenodd" d="M0,238H1255.7V73.3H0V238Z" class="g2_11"/>
<path fill-rule="evenodd" d="M1273.4,238h192.9V73.3H1273.4V238Z" class="g3_11"/>
<path fill-rule="evenodd" d="M1092.3,471H418.2l-95,-95l95,-95h674.1Z" class="g4_11"/>
<path d="M1092.3,471H418.2l-95,-95l95,-95h674.1Z" class="g6_11"/>
<g clip-path="url(#c4_11)">
<path d="M374.5,381.1V360.9c0,-.8,-.4,-1.4,-1.1,-1.8L355,350.3V316.5L323.6,297.7l-31.3,18.8v33.8l-18.5,8.8c-.6,.4,-1,1,-1.1,1.8v20.2l-29.4,17.6v37.4l31.4,18.7l28.4,-17l19.3,12.5c.7,.4,1.5,.4,2.1,0L344.6,438l28,16.8l31.3,-18.7V398.7Zm23.6,18.7l-25.5,15.3L347,399.8q0,-.1,0,-.1l23.6,-14.1v7.7c0,1.1,.9,2,2,2c1.1,0,1.9,-.9,1.9,-2v-7.7l23.6,14.1c0,0,0,.1,0,.1ZM344.3,345.2c-1,-.5,-2.2,-.1,-2.6,.9c-.5,1,-.1,2.2,.9,2.6l7.5,3.6L325.6,367V336.3L351,321.1v27.3Zm4.9,-27.6L323.6,333L298.1,317.6l25.5,-15.3l25.6,15.3Zm-53,3.5l25.5,15.2v30.6q0,.1,-.1,.1L297.2,352.3l7.5,-3.6c.9,-.4,1.4,-1.6,.9,-2.6c-.5,-1,-1.6,-1.4,-2.6,-.9l-6.8,3.2V321.1Zm-21.5,74.2c1.1,0,1.9,-.9,1.9,-2v-7.7l23.6,14.1c0,0,0,.1,0,.1l-25.5,15.3L249.1,399.8q0,-.1,0,-.1l23.6,-14.1v7.7c0,1.1,.9,2,2,2Zm-27.4,7.9l25.4,15.3v30.6L247.3,433.9V403.2Zm29.3,45.9V418.5l25.5,-15.3v29.3l-4.8,-3.1c-.9,-.7,-2.1,-.4,-2.7,.4c-.7,.9,-.4,2.2,.4,2.8q.1,0,.2,0l4.3,2.8l-22.8,13.7q-.1,0,-.1,0Zm46.9,-2.8L306,435V398.7L276.6,381.1v-19l16.3,-7.8l30.7,18.4l30.7,-18.4l16.3,7.8v19l-29.3,17.6v36.8Zm29.2,-15.5c-.6,-1,-1.8,-1.3,-2.7,-.7l-4.8,3V403.2l25.4,15.3v30.6L348.3,435.7l3.8,-2.3c.9,-.5,1.2,-1.7,.6,-2.6Zm21.8,18.3V418.5L400,403.2v30.7l-25.4,15.2c0,0,-.1,0,-.1,0Z" class="g3_11"/>
<path d="M374.5,381.1V360.9c0,-.8,-.4,-1.4,-1.1,-1.8L355,350.3V316.5L323.6,297.7l-31.3,18.8v33.8l-18.5,8.8c-.6,.4,-1,1,-1.1,1.8v20.2l-29.4,17.6v37.4l31.4,18.7l28.4,-17l19.3,12.5c.7,.4,1.5,.4,2.1,0L344.6,438l28,16.8l31.3,-18.7V398.7Zm23.6,18.7l-25.5,15.3L347,399.8q0,-.1,0,-.1l23.6,-14.1v7.7c0,1.1,.9,2,2,2c1.1,0,1.9,-.9,1.9,-2v-7.7l23.6,14.1c0,0,0,.1,0,.1ZM344.3,345.2c-1,-.5,-2.2,-.1,-2.6,.9c-.5,1,-.1,2.2,.9,2.6l7.5,3.6L325.6,367V336.3L351,321.1v27.3Zm4.9,-27.6L323.6,333L298.1,317.6l25.5,-15.3l25.6,15.3Zm-53,3.5l25.5,15.2v30.6q0,.1,-.1,.1L297.2,352.3l7.5,-3.6c.9,-.4,1.4,-1.6,.9,-2.6c-.5,-1,-1.6,-1.4,-2.6,-.9l-6.8,3.2V321.1Zm-21.5,74.2c1.1,0,1.9,-.9,1.9,-2v-7.7l23.6,14.1c0,0,0,.1,0,.1l-25.5,15.3L249.1,399.8q0,-.1,0,-.1l23.6,-14.1v7.7c0,1.1,.9,2,2,2Zm-27.4,7.9l25.4,15.3v30.6L247.3,433.9V403.2Zm29.3,45.9V418.5l25.5,-15.3v29.3l-4.8,-3.1c-.9,-.7,-2.1,-.4,-2.7,.4c-.7,.9,-.4,2.2,.4,2.8q.1,0,.2,0l4.3,2.8l-22.8,13.7q-.1,0,-.1,0Zm46.9,-2.8L306,435V398.7L276.6,381.1v-19l16.3,-7.8l30.7,18.4l30.7,-18.4l16.3,7.8v19l-29.3,17.6v36.8Zm29.2,-15.5c-.6,-1,-1.8,-1.3,-2.7,-.7l-4.8,3V403.2l25.4,15.3v30.6L348.3,435.7l3.8,-2.3c.9,-.5,1.2,-1.7,.6,-2.6Zm21.8,18.3V418.5L400,403.2v30.7l-25.4,15.2c0,0,-.1,0,-.1,0Z" class="g5_11"/>
</g>
<path d="M228.2,376c0,-52.4,42.6,-95,95,-95c52.5,0,95,42.6,95,95c0,52.5,-42.5,95,-95,95c-52.4,0,-95,-42.5,-95,-95Z" class="g6_11"/>
<path fill-rule="evenodd" d="M1092.3,714.1H418.2l-95,-95l95,-94.9h674.1Z" class="g4_11"/>
<path d="M1092.3,714.1H418.2l-95,-95l95,-94.9h674.1Z" class="g6_11"/>
<g clip-path="url(#c5_11)">
<path d="M268.8,550.9H257.1V687.8H392.2V676.1H268.8V550.9Z" class="g3_11"/>
<path d="M268.8,550.9H257.1V687.8H392.2V676.1H268.8V550.9Z" class="g5_11"/>
<path d="M362.8,664.4h29.4V551H362.8V664.4Z" class="g3_11"/>
<path d="M362.8,664.4h29.4V551H362.8V664.4Z" class="g5_11"/>
<path d="M321.7,664.4H351V590.1H321.7v74.3Z" class="g3_11"/>
<path d="M321.7,664.4H351V590.1H321.7v74.3Z" class="g5_11"/>
<path d="M280.5,664.4h29.4V625.3H280.5v39.1Z" class="g3_11"/>
<path d="M280.5,664.4h29.4V625.3H280.5v39.1Z" class="g5_11"/>
<path d="M343.2,577.8V550.9H316.3L327,561.6l-47.3,47.2l5.6,5.5l47.2,-47.1l10.7,10.6Z" class="g3_11"/>
<path d="M343.2,577.8V550.9H316.3L327,561.6l-47.3,47.2l5.6,5.5l47.2,-47.1l10.7,10.6Z" class="g5_11"/>
</g>
<path d="M228.2,619.1c0,-52.4,42.6,-94.9,95,-94.9c52.5,0,95,42.5,95,94.9c0,52.5,-42.5,95,-95,95c-52.4,0,-95,-42.5,-95,-95Z" class="g6_11"/>
</svg>