<?xml version="1.0" encoding="UTF-8" standalone="no"?>
<!DOCTYPE svg PUBLIC "-//W3C//DTD SVG 1.1//EN"
"http://www.w3.org/Graphics/SVG/1.1/DTD/svg11.dtd">
<svg viewBox="0 0 1466 825" version="1.1" xmlns="http://www.w3.org/2000/svg" xmlns:xlink="http://www.w3.org/1999/xlink">
<defs>
<clipPath id="c0_3"><path d="M0,825V0H1466.7V825Z"/></clipPath>
<clipPath id="c1_3"><path d="M1118,85.8V0h86.5V85.8Z"/></clipPath>
<clipPath id="c2_3"><path d="M0,275.7V237.1H1255.7v38.6Z"/></clipPath>
<clipPath id="c3_3"><path d="M1273.4,254.5V237.1h192.9v17.4Z"/></clipPath>
<style type="text/css"><![CDATA[
.g0_3{
fill: none;
stroke: #30243C;
stroke-width: 1.145;
stroke-linejoin: round;
}
.g1_3{
fill: #252525;
}
.g2_3{
fill: #F07F09;
}
.g3_3{
fill: #F07F09;
fill-opacity: 0.2;
}
.g4_3{
fill: none;
stroke: #F07F09;
stroke-width: 1.527;
stroke-linejoin: round;
}
.g5_3{
fill: none;
stroke: #F07F09;
stroke-width: 3.055;
stroke-linejoin: round;
}
]]></style>
</defs>
<g clip-path="url(#c0_3)">
<image x="0" y="0" width="1467" height="825" xlink:href="shade/1.png"/>
<image preserveAspectRatio="none" x="0" y="0" width="1467" height="825" xlink:href="img/1.png"/>
<path d="M-4.1,100.1H1466.6" class="g0_3"/>
</g>
<image clip-path="url(#c1_3)" preserveAspectRatio="none" x="1118" y="0" width="87" height="86" xlink:href="img/2.png"/>
<image clip-path="url(#c2_3)" preserveAspectRatio="none" x="0" y="237" width="1256" height="39" xlink:href="img/3.png"/>
<image clip-path="url(#c3_3)" preserveAspectRatio="none" x="1273" y="237" width="193" height="17" xlink:href="img/4.png"/>
<path fill-rule="evenodd" d="M0,238H1255.7V73.3H0V238Z" class="g1_3"/>
<path fill-rule="evenodd" d="M1273.4,238h192.9V73.3H1273.4V238Z" class="g2_3"/>
<path fill-rule="evenodd" d="M81.8,416.8H305.2V288.5H81.8V416.8Z" class="g3_3"/>
<path fill-rule="evenodd" d="M305.2,416.8H809.9V288.5H305.2V416.8Z" class="g3_3"/>
<path fill-rule="evenodd" d="M809.9,416.8h428.5V288.5H809.9V416.8Z" class="g3_3"/>
<path d="M305.2,247.4V714.9M809.9,247.4V714.9" class="g4_3"/>
<path d="M81.1,288.5h1158" class="g5_3"/>
<path d="M81.1,416.8h1158M81.8,247.4V714.9M1238.4,247.4V714.9M81.1,248.1h1158m-1158,466h1158" class="g4_3"/>
</svg>