<?xml version="1.0" encoding="UTF-8" standalone="no"?>
<!DOCTYPE svg PUBLIC "-//W3C//DTD SVG 1.1//EN"
"http://www.w3.org/Graphics/SVG/1.1/DTD/svg11.dtd">
<svg viewBox="0 0 1466 825" version="1.1" xmlns="http://www.w3.org/2000/svg" xmlns:xlink="http://www.w3.org/1999/xlink">
<defs>
<clipPath id="c0_2"><path d="M0,825V0H1466.7V825Z"/></clipPath>
<clipPath id="c1_2"><path d="M1120.2,84.3V8.4h75.7V84.3Z"/></clipPath>
<clipPath id="c2_2"><path d="M0,275.7V237.1H1255.7v38.6Z"/></clipPath>
<clipPath id="c3_2"><path d="M1273.4,254.5V237.1h192.9v17.4Z"/></clipPath>
<clipPath id="c4_2"><path d="M731.5,654.1v-110h110v110Z"/></clipPath>
<style type="text/css"><![CDATA[
.g0_2{
fill: none;
stroke: #30243C;
stroke-width: 1.145;
stroke-linecap: butt;
stroke-linejoin: round;
}
.g1_2{
fill: #252525;
}
.g2_2{
fill: #F07F09;
}
.g3_2{
fill: none;
stroke: #B05C05;
stroke-width: 1.527;
stroke-linecap: butt;
stroke-linejoin: round;
}
.g4_2{
fill: #1B587C;
}
.g5_2{
}
.g6_2{
fill: none;
stroke: #1B587C;
stroke-width: 1.527;
stroke-linecap: butt;
stroke-linejoin: round;
}
.g7_2{
fill: none;
stroke: #1B587C;
stroke-width: 4.583;
stroke-linecap: butt;
stroke-linejoin: round;
stroke-dasharray: 14,5;
}
]]></style>
</defs>
<g clip-path="url(#c0_2)">
<image x="0" y="0" width="1467" height="825" xlink:href="shade/1.png"/>
<image preserveAspectRatio="none" x="0" y="0" width="1467" height="825" xlink:href="img/1.png"/>
<path d="M-4.1,100.1H1466.6" class="g0_2"/>
</g>
<image clip-path="url(#c1_2)" preserveAspectRatio="none" x="1120" y="8" width="76" height="76" xlink:href="img/2.png"/>
<image clip-path="url(#c2_2)" preserveAspectRatio="none" x="0" y="237" width="1256" height="39" xlink:href="img/3.png"/>
<image clip-path="url(#c3_2)" preserveAspectRatio="none" x="1273" y="237" width="193" height="17" xlink:href="img/4.png"/>
<path fill-rule="evenodd" d="M0,238H1255.7V73.3H0V238Z" class="g1_2"/>
<path fill-rule="evenodd" d="M1273.4,238h192.9V73.3H1273.4V238Z" class="g2_2"/>
<path fill-rule="evenodd" d="M538.6,401.4c0,-30.9,25.1,-56,56.1,-56H934c30.9,0,56,25.1,56,56V625.6c0,30.9,-25.1,56,-56,56H594.7c-31,0,-56.1,-25.1,-56.1,-56Z" class="g2_2"/>
<path d="M538.6,401.4c0,-30.9,25.1,-56,56.1,-56H934c30.9,0,56,25.1,56,56V625.6c0,30.9,-25.1,56,-56,56H594.7c-31,0,-56.1,-25.1,-56.1,-56Z" class="g3_2"/>
<path fill-rule="evenodd" d="M577.9,418c0,-2.4,1.9,-4.4,4.3,-4.4H715.9c2.5,0,4.4,2,4.4,4.4v17.4c0,2.5,-1.9,4.4,-4.4,4.4H582.2c-2.4,0,-4.3,-1.9,-4.3,-4.4Z" class="g4_2"/>
<path d="M577.9,418c0,-2.4,1.9,-4.4,4.3,-4.4H715.9c2.5,0,4.4,2,4.4,4.4v17.4c0,2.5,-1.9,4.4,-4.4,4.4H582.2c-2.4,0,-4.3,-1.9,-4.3,-4.4Z" class="g3_2"/>
<path fill-rule="evenodd" d="M577.9,454.6c0,-2.4,1.9,-4.3,4.3,-4.3H715.9c2.5,0,4.4,1.9,4.4,4.3v17.5c0,2.4,-1.9,4.4,-4.4,4.4H582.2c-2.4,0,-4.3,-2,-4.3,-4.4Z" class="g4_2"/>
<path d="M577.9,454.6c0,-2.4,1.9,-4.3,4.3,-4.3H715.9c2.5,0,4.4,1.9,4.4,4.3v17.5c0,2.4,-1.9,4.4,-4.4,4.4H582.2c-2.4,0,-4.3,-2,-4.3,-4.4Z" class="g3_2"/>
<path fill-rule="evenodd" d="M577.9,491.5c0,-2.4,1.9,-4.4,4.3,-4.4h145c2.4,0,4.3,2,4.3,4.4v17.3c0,2.4,-1.9,4.4,-4.3,4.4h-145c-2.4,0,-4.3,-2,-4.3,-4.4Z" class="g4_2"/>
<path d="M577.9,491.5c0,-2.4,1.9,-4.4,4.3,-4.4h145c2.4,0,4.3,2,4.3,4.4v17.3c0,2.4,-1.9,4.4,-4.3,4.4h-145c-2.4,0,-4.3,-2,-4.3,-4.4Z" class="g3_2"/>
<path fill-rule="evenodd" d="M577.9,540.2c0,-2.4,1.9,-4.3,4.3,-4.3H716c2.4,0,4.3,1.9,4.3,4.3v17.4c0,2.4,-1.9,4.3,-4.3,4.3H582.2c-2.4,0,-4.3,-1.9,-4.3,-4.3Z" class="g4_2"/>
<path d="M577.9,540.2c0,-2.4,1.9,-4.3,4.3,-4.3H716c2.4,0,4.3,1.9,4.3,4.3v17.4c0,2.4,-1.9,4.3,-4.3,4.3H582.2c-2.4,0,-4.3,-1.9,-4.3,-4.3Z" class="g3_2"/>
<path fill-rule="evenodd" d="M577.9,585c0,-5.5,4.4,-9.9,9.8,-9.9H710.5c5.4,0,9.8,4.4,9.8,9.9v39.3c0,5.5,-4.4,9.9,-9.8,9.9H587.7c-5.4,0,-9.8,-4.4,-9.8,-9.9Z" class="g4_2"/>
<path d="M577.9,585c0,-5.5,4.4,-9.9,9.8,-9.9H710.5c5.4,0,9.8,4.4,9.8,9.9v39.3c0,5.5,-4.4,9.9,-9.8,9.9H587.7c-5.4,0,-9.8,-4.4,-9.8,-9.9Z" class="g3_2"/>
<g clip-path="url(#c4_2)">
<path d="M750.4,560.8h-2.2v77h77.1v-2.3H750.4V560.8Z" class="g5_2"/>
<path d="M770.9,628.8V584.6H757.3v44.2Zm-11.4,-42h9.1v39.7h-9.1Z" class="g5_2"/>
<path d="M789,628.8v-68H775.4v68ZM777.7,563.1h9v63.4h-9Z" class="g5_2"/>
<path d="M807.1,628.8V584.6H793.5v44.2Zm-11.3,-42h9.1v39.7h-9.1Z" class="g5_2"/>
<path d="M811.7,628.8h13.6v-25H811.7ZM814,606.1h9v20.4h-9Z" class="g5_2"/>
</g>
<path fill-rule="evenodd" d="M254.1,322.4c0,-16.5,13.3,-29.8,29.8,-29.8H457.7c16.5,0,29.8,13.3,29.8,29.8v119c0,16.4,-13.3,29.8,-29.8,29.8H283.9c-16.5,0,-29.8,-13.4,-29.8,-29.8Z" class="g4_2"/>
<path d="M254.1,322.4c0,-16.5,13.3,-29.8,29.8,-29.8H457.7c16.5,0,29.8,13.3,29.8,29.8v119c0,16.4,-13.3,29.8,-29.8,29.8H283.9c-16.5,0,-29.8,-13.4,-29.8,-29.8Z" class="g6_2"/>
<path fill-rule="evenodd" d="M276.7,343.9c0,-2.4,1.9,-4.4,4.3,-4.4H414.5c2.5,0,4.4,2,4.4,4.4v17.5c0,2.4,-1.9,4.3,-4.4,4.3H281c-2.4,0,-4.3,-1.9,-4.3,-4.3Z" class="g4_2"/>
<path d="M276.7,343.9c0,-2.4,1.9,-4.4,4.3,-4.4H414.5c2.5,0,4.4,2,4.4,4.4v17.5c0,2.4,-1.9,4.3,-4.4,4.3H281c-2.4,0,-4.3,-1.9,-4.3,-4.3Z" class="g3_2"/>
<path fill-rule="evenodd" d="M276.7,381.1c0,-2.4,1.9,-4.3,4.3,-4.3H414.5c2.5,0,4.4,1.9,4.4,4.3v17.5c0,2.4,-1.9,4.4,-4.4,4.4H281c-2.4,0,-4.3,-2,-4.3,-4.4Z" class="g4_2"/>
<path d="M276.7,381.1c0,-2.4,1.9,-4.3,4.3,-4.3H414.5c2.5,0,4.4,1.9,4.4,4.3v17.5c0,2.4,-1.9,4.4,-4.4,4.4H281c-2.4,0,-4.3,-2,-4.3,-4.4Z" class="g3_2"/>
<path d="M578,429.1H532.8c-1.3,0,-2.3,-1,-2.3,-2.3V382l2.3,2.3H499v-4.6h33.8c1.3,0,2.3,1,2.3,2.3v44.8l-2.3,-2.3H578ZM501.3,388.8L487.6,382l13.7,-6.9Z" class="g4_2"/>
<path fill-rule="evenodd" d="M10.1,456.4c0,-16.5,13.3,-29.8,29.7,-29.8H213.7c16.4,0,29.8,13.3,29.8,29.8v119c0,16.5,-13.4,29.8,-29.8,29.8H39.8c-16.4,0,-29.7,-13.3,-29.7,-29.8Z" class="g4_2"/>
<path d="M10.1,456.4c0,-16.5,13.3,-29.8,29.7,-29.8H213.7c16.4,0,29.8,13.3,29.8,29.8v119c0,16.5,-13.4,29.8,-29.8,29.8H39.8c-16.4,0,-29.7,-13.3,-29.7,-29.8Z" class="g6_2"/>
<path fill-rule="evenodd" d="M52.8,520.5c0,-2.5,2,-4.4,4.4,-4.4H190.7c2.4,0,4.4,1.9,4.4,4.4v17.4c0,2.4,-2,4.4,-4.4,4.4H57.2c-2.4,0,-4.4,-2,-4.4,-4.4Z" class="g4_2"/>
<path d="M52.8,520.5c0,-2.5,2,-4.4,4.4,-4.4H190.7c2.4,0,4.4,1.9,4.4,4.4v17.4c0,2.4,-2,4.4,-4.4,4.4H57.2c-2.4,0,-4.4,-2,-4.4,-4.4Z" class="g3_2"/>
<path fill-rule="evenodd" d="M52.8,556.4c0,-2.4,2,-4.4,4.4,-4.4H190.7c2.4,0,4.4,2,4.4,4.4v17.5c0,2.4,-2,4.3,-4.4,4.3H57.2c-2.4,0,-4.4,-1.9,-4.4,-4.3Z" class="g4_2"/>
<path d="M52.8,556.4c0,-2.4,2,-4.4,4.4,-4.4H190.7c2.4,0,4.4,2,4.4,4.4v17.5c0,2.4,-2,4.3,-4.4,4.3H57.2c-2.4,0,-4.4,-1.9,-4.4,-4.3Z" class="g3_2"/>
<path d="M254.3,379.7H127c-1.3,0,-2.3,1,-2.3,2.3v33.3h4.5V382l-2.2,2.3H254.3ZM120.1,413l6.9,13.7L133.8,413Z" class="g4_2"/>
<path fill-rule="evenodd" d="M734.3,418c0,-2.4,1.9,-4.4,4.3,-4.4H897.4c2.5,0,4.4,2,4.4,4.4v17.4c0,2.5,-1.9,4.4,-4.4,4.4H738.6c-2.4,0,-4.3,-1.9,-4.3,-4.4Z" class="g4_2"/>
<path d="M734.3,418c0,-2.4,1.9,-4.4,4.3,-4.4H897.4c2.5,0,4.4,2,4.4,4.4v17.4c0,2.5,-1.9,4.4,-4.4,4.4H738.6c-2.4,0,-4.3,-1.9,-4.3,-4.4Z" class="g3_2"/>
<path fill-rule="evenodd" d="M1074.7,416c0,-25.5,20.7,-46.2,46.2,-46.2h237.6c25.5,0,46.2,20.7,46.2,46.2V600.8c0,25.5,-20.7,46.2,-46.2,46.2H1120.9c-25.5,0,-46.2,-20.7,-46.2,-46.2Z" class="g4_2"/>
<path d="M1074.7,416c0,-25.5,20.7,-46.2,46.2,-46.2h237.6c25.5,0,46.2,20.7,46.2,46.2V600.8c0,25.5,-20.7,46.2,-46.2,46.2H1120.9c-25.5,0,-46.2,-20.7,-46.2,-46.2Z" class="g6_2"/>
<path fill-rule="evenodd" d="M1108.6,460.7c0,-2.4,2,-4.4,4.4,-4.4h133.5c2.4,0,4.4,2,4.4,4.4v17.5c0,2.4,-2,4.3,-4.4,4.3H1113c-2.4,0,-4.4,-1.9,-4.4,-4.3Z" class="g4_2"/>
<path d="M1108.6,460.7c0,-2.4,2,-4.4,4.4,-4.4h133.5c2.4,0,4.4,2,4.4,4.4v17.5c0,2.4,-2,4.3,-4.4,4.3H1113c-2.4,0,-4.4,-1.9,-4.4,-4.3Z" class="g3_2"/>
<path fill-rule="evenodd" d="M1108.6,496.6c0,-2.4,2,-4.4,4.4,-4.4h133.5c2.4,0,4.4,2,4.4,4.4v17.3c0,2.4,-2,4.4,-4.4,4.4H1113c-2.4,0,-4.4,-2,-4.4,-4.4Z" class="g4_2"/>
<path d="M1108.6,496.6c0,-2.4,2,-4.4,4.4,-4.4h133.5c2.4,0,4.4,2,4.4,4.4v17.3c0,2.4,-2,4.4,-4.4,4.4H1113c-2.4,0,-4.4,-2,-4.4,-4.4Z" class="g3_2"/>
<path fill-rule="evenodd" d="M1110.3,530.2c0,-2.4,1.9,-4.4,4.3,-4.4h133.6c2.4,0,4.3,2,4.3,4.4v17.4c0,2.5,-1.9,4.4,-4.3,4.4H1114.6c-2.4,0,-4.3,-1.9,-4.3,-4.4Z" class="g4_2"/>
<path d="M1110.3,530.2c0,-2.4,1.9,-4.4,4.3,-4.4h133.6c2.4,0,4.3,2,4.3,4.4v17.4c0,2.5,-1.9,4.4,-4.3,4.4H1114.6c-2.4,0,-4.3,-1.9,-4.3,-4.4Z" class="g3_2"/>
<path fill-rule="evenodd" d="M1111.7,566.1c0,-2.4,2,-4.4,4.4,-4.4h133.5c2.4,0,4.4,2,4.4,4.4v17.5c0,2.4,-2,4.3,-4.4,4.3H1116.1c-2.4,0,-4.4,-1.9,-4.4,-4.3Z" class="g4_2"/>
<path d="M1111.7,566.1c0,-2.4,2,-4.4,4.4,-4.4h133.5c2.4,0,4.4,2,4.4,4.4v17.5c0,2.4,-2,4.3,-4.4,4.3H1116.1c-2.4,0,-4.4,-1.9,-4.4,-4.3Z" class="g3_2"/>
<path fill-rule="evenodd" d="M1110.6,601.3c0,-2.4,2,-4.4,4.4,-4.4h133.5c2.4,0,4.4,2,4.4,4.4v17.5c0,2.4,-2,4.4,-4.4,4.4H1115c-2.4,0,-4.4,-2,-4.4,-4.4Z" class="g4_2"/>
<path d="M1110.6,601.3c0,-2.4,2,-4.4,4.4,-4.4h133.5c2.4,0,4.4,2,4.4,4.4v17.5c0,2.4,-2,4.4,-4.4,4.4H1115c-2.4,0,-4.4,-2,-4.4,-4.4Z" class="g3_2"/>
<path d="M10.2,341.9c0,-36.5,29.6,-66.1,66.1,-66.1h371c36.5,0,66.1,29.6,66.1,66.1V606.3c0,36.5,-29.6,66.1,-66.1,66.1H76.3c-36.5,0,-66.1,-29.6,-66.1,-66.1Z" class="g7_2"/>
<path d="M901.9,424.6h103.4c1.3,0,2.3,1,2.3,2.3v42.6l-2.3,-2.3h91.9v4.6h-91.9c-1.3,0,-2.3,-1,-2.3,-2.3V426.9l2.3,2.3H901.9Zm193,38l13.8,6.9l-13.8,6.9Z" class="g4_2"/>
<path d="M1029.3,401.9c0,-34.5,28,-62.5,62.5,-62.5h274.9c34.5,0,62.5,28,62.5,62.5V651.7c0,34.5,-28,62.5,-62.5,62.5H1091.8c-34.5,0,-62.5,-28,-62.5,-62.5Z" class="g7_2"/>
</svg>