<svg viewBox="0 0 1466 825" version="1.1" xmlns="http://www.w3.org/2000/svg">
<defs>
<clipPath id="c0_2"><path d="M-.2 825.3V-.2H1467V825.3Z"/></clipPath>
<clipPath id="c1_2"><path d="M1119.8 84.6V8.1h76.5V84.6Z"/></clipPath>
<clipPath id="c2_2"><path d="M-.2 276V236.7H1256V276Z"/></clipPath>
<clipPath id="c3_2"><path d="M1273.1 254.8v-18h193.5v18Z"/></clipPath>
<clipPath id="c4_2"><path d="M731.3 654.5V543.8H841.9V654.5Z"/></clipPath>
<style>
.g0_2{fill:none;stroke:#30243C;stroke-width:1.145;stroke-linejoin:round;}
.g1_2{fill:#252525;}
.g2_2{fill:#F07F09;}
.g3_2{fill:none;stroke:#B05C05;stroke-width:1.527;stroke-linejoin:round;}
.g4_2{fill:#1B587C;}
.g5_2{fill:#000;}
.g6_2{fill:none;stroke:#1B587C;stroke-width:1.527;stroke-linejoin:round;}
.g7_2{fill:none;stroke:#1B587C;stroke-width:4.583;stroke-linejoin:round;stroke-dasharray:14,5;}
</style>
</defs>
<g clip-path="url(#c0_2)">
<image x="0" y="0" width="1467" height="825" href="shade/1.png"/>
<image preserveAspectRatio="none" x="0" y="0" width="1467" height="825" href="img/1.png"/>
<path d="M-4.1 100.2H1466.7" class="g0_2"/>
</g>
<image clip-path="url(#c1_2)" preserveAspectRatio="none" x="1120" y="8" width="76" height="76" href="img/2.png"/>
<image clip-path="url(#c2_2)" preserveAspectRatio="none" x="0" y="237" width="1256" height="39" href="img/3.png"/>
<image clip-path="url(#c3_2)" preserveAspectRatio="none" x="1273" y="237" width="193" height="17" href="img/4.png"/>
<path fill-rule="evenodd" d="M0 237.9H1255.6V73.3H0V237.9Z" class="g1_2"/>
<path fill-rule="evenodd" d="M1273.4 237.9h192.9V73.3H1273.4V237.9Z" class="g2_2"/>
<path fill-rule="evenodd" d="M538.6 401.5c0-31 25.1-56.1 56.1-56.1H934c30.9 0 56 25.1 56 56.1V625.6c0 31-25.1 56-56 56H594.7c-31 0-56.1-25-56.1-56Z" class="g2_2"/>
<path d="M538.6 401.5c0-31 25.1-56.1 56.1-56.1H934c30.9 0 56 25.1 56 56.1V625.6c0 31-25.1 56-56 56H594.7c-31 0-56.1-25-56.1-56Z" class="g3_2"/>
<path fill-rule="evenodd" d="M577.9 418c0-2.4 2-4.4 4.4-4.4H715.9c2.4 0 4.3 2 4.3 4.4v17.5c0 2.4-1.9 4.3-4.3 4.3H582.3c-2.4 0-4.4-1.9-4.4-4.3Z" class="g4_2"/>
<path d="M577.9 418c0-2.4 2-4.4 4.4-4.4H715.9c2.4 0 4.3 2 4.3 4.4v17.5c0 2.4-1.9 4.3-4.3 4.3H582.3c-2.4 0-4.4-1.9-4.4-4.3Z" class="g3_2"/>
<path fill-rule="evenodd" d="M577.9 454.7c0-2.4 2-4.4 4.4-4.4H715.9c2.4 0 4.3 2 4.3 4.4v17.5c0 2.4-1.9 4.3-4.3 4.3H582.3c-2.4 0-4.4-1.9-4.4-4.3Z" class="g4_2"/>
<path d="M577.9 454.7c0-2.4 2-4.4 4.4-4.4H715.9c2.4 0 4.3 2 4.3 4.4v17.5c0 2.4-1.9 4.3-4.3 4.3H582.3c-2.4 0-4.4-1.9-4.4-4.3Z" class="g3_2"/>
<path fill-rule="evenodd" d="M577.9 491.4c0-2.4 2-4.4 4.4-4.4H727.2c2.4 0 4.4 2 4.4 4.4v17.5c0 2.4-2 4.3-4.4 4.3H582.3c-2.4 0-4.4-1.9-4.4-4.3Z" class="g4_2"/>
<path d="M577.9 491.4c0-2.4 2-4.4 4.4-4.4H727.2c2.4 0 4.4 2 4.4 4.4v17.5c0 2.4-2 4.3-4.4 4.3H582.3c-2.4 0-4.4-1.9-4.4-4.3Z" class="g3_2"/>
<path fill-rule="evenodd" d="M577.9 540.2c0-2.5 2-4.4 4.4-4.4H715.9c2.4 0 4.3 1.9 4.3 4.4v17.4c0 2.4-1.9 4.4-4.3 4.4H582.3c-2.4 0-4.4-2-4.4-4.4Z" class="g4_2"/>
<path d="M577.9 540.2c0-2.5 2-4.4 4.4-4.4H715.9c2.4 0 4.3 1.9 4.3 4.4v17.4c0 2.4-1.9 4.4-4.3 4.4H582.3c-2.4 0-4.4-2-4.4-4.4Z" class="g3_2"/>
<path fill-rule="evenodd" d="M577.9 584.9c0-5.4 4.4-9.8 9.9-9.8H710.4c5.4 0 9.8 4.4 9.8 9.8v39.4c0 5.4-4.4 9.8-9.8 9.8H587.8c-5.5 0-9.9-4.4-9.9-9.8Z" class="g4_2"/>
<path d="M577.9 584.9c0-5.4 4.4-9.8 9.9-9.8H710.4c5.4 0 9.8 4.4 9.8 9.8v39.4c0 5.4-4.4 9.8-9.8 9.8H587.8c-5.5 0-9.9-4.4-9.9-9.8Z" class="g3_2"/>
<g clip-path="url(#c4_2)">
<path d="M750.5 560.8h-2.3v77h77v-2.2H750.5V560.8Z" class="g5_2"/>
<path d="M770.9 628.8V584.6H757.3v44.2Zm-11.3-41.9h9v39.6h-9Z" class="g5_2"/>
<path d="M789 628.8v-68H775.4v68Zm-11.3-65.7h9v63.4h-9Z" class="g5_2"/>
<path d="M807.1 628.8V584.6H793.5v44.2Zm-11.3-41.9h9.1v39.6h-9.1Z" class="g5_2"/>
<path d="M811.7 628.8h13.5V603.9H811.7Zm2.2-22.7H823v20.4h-9.1Z" class="g5_2"/>
</g>
<path fill-rule="evenodd" d="M254.2 322.4c0-16.4 13.3-29.8 29.7-29.8H457.7c16.4 0 29.8 13.4 29.8 29.8v119c0 16.5-13.4 29.8-29.8 29.8H283.9c-16.4 0-29.7-13.3-29.7-29.8Z" class="g4_2"/>
<path d="M254.2 322.4c0-16.4 13.3-29.8 29.7-29.8H457.7c16.4 0 29.8 13.4 29.8 29.8v119c0 16.5-13.4 29.8-29.8 29.8H283.9c-16.4 0-29.7-13.3-29.7-29.8Z" class="g6_2"/>
<path fill-rule="evenodd" d="M276.6 343.9c0-2.4 2-4.3 4.4-4.3H414.6c2.4 0 4.3 1.9 4.3 4.3v17.5c0 2.4-1.9 4.4-4.3 4.4H281c-2.4 0-4.4-2-4.4-4.4Z" class="g4_2"/>
<path d="M276.6 343.9c0-2.4 2-4.3 4.4-4.3H414.6c2.4 0 4.3 1.9 4.3 4.3v17.5c0 2.4-1.9 4.4-4.3 4.4H281c-2.4 0-4.4-2-4.4-4.4Z" class="g3_2"/>
<path fill-rule="evenodd" d="M276.6 381.2c0-2.4 2-4.4 4.4-4.4H414.6c2.4 0 4.3 2 4.3 4.4v17.5c0 2.4-1.9 4.3-4.3 4.3H281c-2.4 0-4.4-1.9-4.4-4.3Z" class="g4_2"/>
<path d="M276.6 381.2c0-2.4 2-4.4 4.4-4.4H414.6c2.4 0 4.3 2 4.3 4.4v17.5c0 2.4-1.9 4.3-4.3 4.3H281c-2.4 0-4.4-1.9-4.4-4.3Z" class="g3_2"/>
<path d="M577.9 429H532.7c-1.3 0-2.3-1-2.3-2.3V381.9l2.3 2.3H498.9v-4.6h33.8c1.3 0 2.3 1 2.3 2.3v44.8l-2.3-2.3h45.2Zm-76.7-40.2l-13.7-6.9l13.7-6.9Z" class="g4_2"/>
<path fill-rule="evenodd" d="M10.1 456.4c0-16.4 13.4-29.7 29.8-29.7H213.7c16.4 0 29.8 13.3 29.8 29.7V575.5c0 16.4-13.4 29.7-29.8 29.7H39.9c-16.4 0-29.8-13.3-29.8-29.7Z" class="g4_2"/>
<path d="M10.1 456.4c0-16.4 13.4-29.7 29.8-29.7H213.7c16.4 0 29.8 13.3 29.8 29.7V575.5c0 16.4-13.4 29.7-29.8 29.7H39.9c-16.4 0-29.8-13.3-29.8-29.7Z" class="g6_2"/>
<path fill-rule="evenodd" d="M52.8 520.5c0-2.4 2-4.4 4.4-4.4H190.7c2.5 0 4.4 2 4.4 4.4v17.4c0 2.4-1.9 4.4-4.4 4.4H57.2c-2.4 0-4.4-2-4.4-4.4Z" class="g4_2"/>
<path d="M52.8 520.5c0-2.4 2-4.4 4.4-4.4H190.7c2.5 0 4.4 2 4.4 4.4v17.4c0 2.4-1.9 4.4-4.4 4.4H57.2c-2.4 0-4.4-2-4.4-4.4Z" class="g3_2"/>
<path fill-rule="evenodd" d="M52.8 556.4c0-2.4 2-4.4 4.4-4.4H190.7c2.5 0 4.4 2 4.4 4.4v17.4c0 2.5-1.9 4.4-4.4 4.4H57.2c-2.4 0-4.4-1.9-4.4-4.4Z" class="g4_2"/>
<path d="M52.8 556.4c0-2.4 2-4.4 4.4-4.4H190.7c2.5 0 4.4 2 4.4 4.4v17.4c0 2.5-1.9 4.4-4.4 4.4H57.2c-2.4 0-4.4-1.9-4.4-4.4Z" class="g3_2"/>
<path d="M254.2 379.6H126.8c-1.3 0-2.3 1-2.3 2.3v33.3h4.6V381.9l-2.3 2.3H254.2ZM119.9 412.9l6.9 13.8l6.9-13.8Z" class="g4_2"/>
<path fill-rule="evenodd" d="M734.2 418c0-2.4 2-4.4 4.4-4.4H897.5c2.4 0 4.3 2 4.3 4.4v17.5c0 2.4-1.9 4.3-4.3 4.3H738.6c-2.4 0-4.4-1.9-4.4-4.3Z" class="g4_2"/>
<path d="M734.2 418c0-2.4 2-4.4 4.4-4.4H897.5c2.4 0 4.3 2 4.3 4.4v17.5c0 2.4-1.9 4.3-4.3 4.3H738.6c-2.4 0-4.4-1.9-4.4-4.3Z" class="g3_2"/>
<path fill-rule="evenodd" d="M1074.8 416c0-25.5 20.7-46.1 46.2-46.1h237.6c25.5 0 46.2 20.6 46.2 46.1V600.7c0 25.5-20.7 46.2-46.2 46.2H1121c-25.5 0-46.2-20.7-46.2-46.2Z" class="g4_2"/>
<path d="M1074.8 416c0-25.5 20.7-46.1 46.2-46.1h237.6c25.5 0 46.2 20.6 46.2 46.1V600.7c0 25.5-20.7 46.2-46.2 46.2H1121c-25.5 0-46.2-20.7-46.2-46.2Z" class="g6_2"/>
<path fill-rule="evenodd" d="M1108.6 460.6c0-2.4 2-4.3 4.4-4.3h133.5c2.5 0 4.4 1.9 4.4 4.3v17.5c0 2.4-1.9 4.3-4.4 4.3H1113c-2.4 0-4.4-1.9-4.4-4.3Z" class="g4_2"/>
<path d="M1108.6 460.6c0-2.4 2-4.3 4.4-4.3h133.5c2.5 0 4.4 1.9 4.4 4.3v17.5c0 2.4-1.9 4.3-4.4 4.3H1113c-2.4 0-4.4-1.9-4.4-4.3Z" class="g3_2"/>
<path fill-rule="evenodd" d="M1108.6 496.5c0-2.4 2-4.3 4.4-4.3h133.5c2.5 0 4.4 1.9 4.4 4.3V514c0 2.4-1.9 4.4-4.4 4.4H1113c-2.4 0-4.4-2-4.4-4.4Z" class="g4_2"/>
<path d="M1108.6 496.5c0-2.4 2-4.3 4.4-4.3h133.5c2.5 0 4.4 1.9 4.4 4.3V514c0 2.4-1.9 4.4-4.4 4.4H1113c-2.4 0-4.4-2-4.4-4.4Z" class="g3_2"/>
<path fill-rule="evenodd" d="M1110.3 530.1c0-2.4 1.9-4.3 4.3-4.3h133.6c2.4 0 4.3 1.9 4.3 4.3v17.5c0 2.4-1.9 4.4-4.3 4.4H1114.6c-2.4 0-4.3-2-4.3-4.4Z" class="g4_2"/>
<path d="M1110.3 530.1c0-2.4 1.9-4.3 4.3-4.3h133.6c2.4 0 4.3 1.9 4.3 4.3v17.5c0 2.4-1.9 4.4-4.3 4.4H1114.6c-2.4 0-4.3-2-4.3-4.4Z" class="g3_2"/>
<path fill-rule="evenodd" d="M1111.8 566.1c0-2.5 1.9-4.4 4.3-4.4h133.6c2.4 0 4.4 1.9 4.4 4.4v17.4c0 2.4-2 4.4-4.4 4.4H1116.1c-2.4 0-4.3-2-4.3-4.4Z" class="g4_2"/>
<path d="M1111.8 566.1c0-2.5 1.9-4.4 4.3-4.4h133.6c2.4 0 4.4 1.9 4.4 4.4v17.4c0 2.4-2 4.4-4.4 4.4H1116.1c-2.4 0-4.3-2-4.3-4.4Z" class="g3_2"/>
<path fill-rule="evenodd" d="M1110.7 601.2c0-2.4 1.9-4.3 4.3-4.3h133.6c2.4 0 4.4 1.9 4.4 4.3v17.5c0 2.4-2 4.4-4.4 4.4H1115c-2.4 0-4.3-2-4.3-4.4Z" class="g4_2"/>
<path d="M1110.7 601.2c0-2.4 1.9-4.3 4.3-4.3h133.6c2.4 0 4.4 1.9 4.4 4.3v17.5c0 2.4-2 4.4-4.4 4.4H1115c-2.4 0-4.3-2-4.3-4.4Z" class="g3_2"/>
<path d="M10.1 341.8c0-36.5 29.6-66.1 66.2-66.1H447.2c36.5 0 66.1 29.6 66.1 66.1V606.2c0 36.6-29.6 66.2-66.1 66.2H76.3c-36.6 0-66.2-29.6-66.2-66.2Z" class="g7_2"/>
<path d="M901.8 424.4h103.4c1.3 0 2.3 1.1 2.3 2.3v42.6l-2.3-2.2h92v4.5h-92c-1.3 0-2.3-1-2.3-2.3V426.7l2.3 2.3H901.8Zm193.1 38.1l13.7 6.8l-13.7 6.9Z" class="g4_2"/>
<path d="M1029.3 401.9c0-34.5 28-62.5 62.4-62.5h274.9c34.5 0 62.5 28 62.5 62.5V651.7c0 34.4-28 62.4-62.5 62.4H1091.7c-34.4 0-62.4-28-62.4-62.4Z" class="g7_2"/>
</svg>