<?xml version="1.0" encoding="UTF-8" standalone="no"?>
<!DOCTYPE svg PUBLIC "-//W3C//DTD SVG 1.1//EN"
"http://www.w3.org/Graphics/SVG/1.1/DTD/svg11.dtd">
<svg viewBox="0 0 1466 825" version="1.1" xmlns="http://www.w3.org/2000/svg" xmlns:xlink="http://www.w3.org/1999/xlink">
<defs>
<clipPath id="c0_28"><path d="M0,825V0H1466.7V825Z"/></clipPath>
<clipPath id="c1_28"><path d="M1135.9,72.6V2.6H1206v70Z"/></clipPath>
<clipPath id="c2_28"><path d="M0,275.7V237.1H1255.7v38.6Z"/></clipPath>
<clipPath id="c3_28"><path d="M1273.4,254.5V237.1h192.9v17.4Z"/></clipPath>
<clipPath id="c4_28"><path d="M647,454.9V253.2H862.4V454.9Z"/></clipPath>
<clipPath id="c5_28"><path d="M883.5,480V252.8h501.4V480Z"/></clipPath>
<clipPath id="c6_28"><path d="M684.9,805.4V497.6h643.2V805.4Z"/></clipPath>
<style type="text/css"><![CDATA[
.g0_28{
fill: none;
stroke: #30243C;
stroke-width: 1.145;
stroke-linejoin: round;
}
.g1_28{
fill: #252525;
}
.g2_28{
fill: #F07F09;
}
]]></style>
</defs>
<g clip-path="url(#c0_28)">
<image x="0" y="0" width="1467" height="825" xlink:href="shade/1.png"/>
<image preserveAspectRatio="none" x="0" y="0" width="1467" height="825" xlink:href="img/1.png"/>
<path d="M-4.1,100.1H1466.6" class="g0_28"/>
</g>
<image clip-path="url(#c1_28)" preserveAspectRatio="none" x="1136" y="3" width="70" height="70" xlink:href="img/2.png"/>
<image clip-path="url(#c2_28)" preserveAspectRatio="none" x="0" y="237" width="1256" height="39" xlink:href="img/3.png"/>
<image clip-path="url(#c3_28)" preserveAspectRatio="none" x="1273" y="237" width="193" height="17" xlink:href="img/4.png"/>
<path fill-rule="evenodd" d="M0,238H1255.7V73.3H0V238Z" class="g1_28"/>
<path fill-rule="evenodd" d="M1273.4,238h192.9V73.3H1273.4V238Z" class="g2_28"/>
<g clip-path="url(#c0_28)">
<image preserveAspectRatio="none" x="69" y="263" width="55" height="67" xlink:href="img/5.png"/>
<image preserveAspectRatio="none" x="96" y="261" width="149" height="70" xlink:href="img/6.png"/>
<image preserveAspectRatio="none" x="127" y="294" width="49" height="59" xlink:href="img/7.png"/>
<image preserveAspectRatio="none" x="154" y="292" width="382" height="62" xlink:href="img/8.png"/>
<image preserveAspectRatio="none" x="154" y="310" width="485" height="62" xlink:href="img/9.png"/>
<image preserveAspectRatio="none" x="127" y="338" width="49" height="59" xlink:href="img/10.png"/>
<image preserveAspectRatio="none" x="154" y="336" width="463" height="62" xlink:href="img/11.png"/>
<image preserveAspectRatio="none" x="154" y="354" width="234" height="62" xlink:href="img/12.png"/>
<image preserveAspectRatio="none" x="69" y="386" width="55" height="67" xlink:href="img/13.png"/>
<image preserveAspectRatio="none" x="96" y="384" width="409" height="70" xlink:href="img/14.png"/>
<image preserveAspectRatio="none" x="457" y="384" width="57" height="70" xlink:href="img/15.png"/>
<image preserveAspectRatio="none" x="466" y="384" width="176" height="70" xlink:href="img/16.png"/>
<image preserveAspectRatio="none" x="96" y="405" width="418" height="70" xlink:href="img/17.png"/>
<image preserveAspectRatio="none" x="466" y="405" width="57" height="70" xlink:href="img/18.png"/>
<image preserveAspectRatio="none" x="475" y="405" width="124" height="70" xlink:href="img/19.png"/>
<image preserveAspectRatio="none" x="69" y="443" width="55" height="66" xlink:href="img/20.png"/>
<image preserveAspectRatio="none" x="96" y="441" width="100" height="69" xlink:href="img/21.png"/>
<image preserveAspectRatio="none" x="148" y="441" width="57" height="69" xlink:href="img/22.png"/>
<image preserveAspectRatio="none" x="157" y="441" width="125" height="69" xlink:href="img/23.png"/>
<image preserveAspectRatio="none" x="127" y="473" width="49" height="59" xlink:href="img/24.png"/>
<image preserveAspectRatio="none" x="154" y="472" width="225" height="61" xlink:href="img/25.png"/>
<image preserveAspectRatio="none" x="127" y="499" width="49" height="59" xlink:href="img/26.png"/>
<image preserveAspectRatio="none" x="154" y="497" width="81" height="62" xlink:href="img/27.png"/>
<image preserveAspectRatio="none" x="199" y="497" width="115" height="62" xlink:href="img/28.png"/>
<image preserveAspectRatio="none" x="271" y="497" width="241" height="62" xlink:href="img/29.png"/>
<image preserveAspectRatio="none" x="470" y="497" width="150" height="62" xlink:href="img/30.png"/>
<image preserveAspectRatio="none" x="577" y="497" width="51" height="62" xlink:href="img/31.png"/>
<image preserveAspectRatio="none" x="69" y="530" width="55" height="66" xlink:href="img/32.png"/>
<image preserveAspectRatio="none" x="96" y="528" width="106" height="70" xlink:href="img/33.png"/>
<image preserveAspectRatio="none" x="69" y="566" width="55" height="66" xlink:href="img/34.png"/>
<image preserveAspectRatio="none" x="96" y="563" width="570" height="70" xlink:href="img/35.png"/>
<image preserveAspectRatio="none" x="96" y="584" width="421" height="70" xlink:href="img/36.png"/>
</g>
<image clip-path="url(#c4_28)" preserveAspectRatio="none" x="647" y="253" width="215" height="202" xlink:href="img/37.jpg"/>
<image clip-path="url(#c5_28)" preserveAspectRatio="none" x="883" y="253" width="502" height="227" xlink:href="img/38.jpg"/>
<image clip-path="url(#c6_28)" preserveAspectRatio="none" x="685" y="498" width="643" height="307" xlink:href="img/39.jpg"/>
</svg>