<svg viewBox="0 0 1466 825" version="1.1" xmlns="http://www.w3.org/2000/svg">
<defs>
<clipPath id="c0_11"><path d="M-.2 825.3V-.2H1467V825.3Z"/></clipPath>
<clipPath id="c1_11"><path d="M1119.8 84.6V8.1h76.5V84.6Z"/></clipPath>
<clipPath id="c2_11"><path d="M-.2 276V236.7H1256V276Z"/></clipPath>
<clipPath id="c3_11"><path d="M1273.1 254.8v-18h193.5v18Z"/></clipPath>
<clipPath id="c4_11"><path d="M26.2 474.4V202.9H323.1V474.4Z"/></clipPath>
<clipPath id="c5_11"><path d="M26.2 722.7V486H201V722.7Z"/></clipPath>
<style>
.g0_11{fill:none;stroke:#30243C;stroke-width:1.145;stroke-linejoin:round;}
.g1_11{fill:#252525;}
.g2_11{fill:#F07F09;}
.g3_11{fill:#F9D8CC;}
.g4_11{fill:#FCECE7;}
.g5_11{fill:none;stroke:#FFF;stroke-width:1.527;stroke-linejoin:round;}
.g6_11{fill:none;stroke:#FFF;stroke-width:4.583;stroke-linejoin:round;}
</style>
</defs>
<g clip-path="url(#c0_11)">
<image x="0" y="0" width="1467" height="825" href="shade/1.png"/>
<image preserveAspectRatio="none" x="0" y="0" width="1467" height="825" href="img/1.png"/>
<path d="M-4.1 100.2H1466.7" class="g0_11"/>
</g>
<image clip-path="url(#c1_11)" preserveAspectRatio="none" x="1120" y="8" width="76" height="76" href="img/2.png"/>
<image clip-path="url(#c2_11)" preserveAspectRatio="none" x="0" y="237" width="1256" height="39" href="img/3.png"/>
<image clip-path="url(#c3_11)" preserveAspectRatio="none" x="1273" y="237" width="193" height="17" href="img/4.png"/>
<path fill-rule="evenodd" d="M0 237.9H1255.6V73.3H0V237.9Z" class="g1_11"/>
<path fill-rule="evenodd" d="M1273.4 237.9h192.9V73.3H1273.4V237.9Z" class="g2_11"/>
<image clip-path="url(#c4_11)" preserveAspectRatio="none" x="26" y="203" width="297" height="271" href="img/5.jpg"/>
<path fill-rule="evenodd" d="M369 325.9H589.7V268.7H369v57.2Z" class="g2_11"/>
<path fill-rule="evenodd" d="M589.7 325.9h463.7V268.7H589.7v57.2Z" class="g2_11"/>
<path fill-rule="evenodd" d="M1053.4 325.9h342V268.7h-342v57.2Z" class="g2_11"/>
<path fill-rule="evenodd" d="M369 388.3H589.7V325.9H369v62.4Z" class="g3_11"/>
<path fill-rule="evenodd" d="M589.7 388.3h463.7V325.9H589.7v62.4Z" class="g3_11"/>
<path fill-rule="evenodd" d="M1053.4 388.3h342V325.9h-342v62.4Z" class="g3_11"/>
<path fill-rule="evenodd" d="M369 480H589.7V388.3H369V480Z" class="g4_11"/>
<path fill-rule="evenodd" d="M589.7 480h463.7V388.3H589.7V480Z" class="g4_11"/>
<path fill-rule="evenodd" d="M1053.4 480h342V388.3h-342V480Z" class="g4_11"/>
<path fill-rule="evenodd" d="M369 537.3H589.7V480H369v57.3Z" class="g3_11"/>
<path fill-rule="evenodd" d="M589.7 537.3h463.7V480H589.7v57.3Z" class="g3_11"/>
<path fill-rule="evenodd" d="M1053.4 537.3h342V480h-342v57.3Z" class="g3_11"/>
<path fill-rule="evenodd" d="M369 594.6H589.7V537.3H369v57.3Z" class="g4_11"/>
<path fill-rule="evenodd" d="M589.7 594.6h463.7V537.3H589.7v57.3Z" class="g4_11"/>
<path fill-rule="evenodd" d="M1053.4 594.6h342V537.3h-342v57.3Z" class="g4_11"/>
<path fill-rule="evenodd" d="M369 651.8H589.7V594.6H369v57.2Z" class="g3_11"/>
<path fill-rule="evenodd" d="M589.7 651.8h463.7V594.6H589.7v57.2Z" class="g3_11"/>
<path fill-rule="evenodd" d="M1053.4 651.8h342V594.6h-342v57.2Z" class="g3_11"/>
<path fill-rule="evenodd" d="M369 714.2H589.7V651.8H369v62.4Z" class="g4_11"/>
<path fill-rule="evenodd" d="M589.7 714.2h463.7V651.8H589.7v62.4Z" class="g4_11"/>
<path fill-rule="evenodd" d="M1053.4 714.2h342V651.8h-342v62.4Z" class="g4_11"/>
<path d="M589.7 267.9v447m463.7-447v447" class="g5_11"/>
<path d="M368.3 325.9H1396.2" class="g6_11"/>
<path d="M368.3 388.3H1396.2M368.3 480H1396.2M368.3 537.3H1396.2M368.3 594.6H1396.2M368.3 651.8H1396.2M369 267.9v447m1026.4-447v447M368.3 268.7H1396.2M368.3 714.2H1396.2" class="g5_11"/>
<image clip-path="url(#c5_11)" preserveAspectRatio="none" x="26" y="486" width="175" height="236" href="img/6.jpg"/>
</svg>