<?xml version="1.0" encoding="UTF-8" standalone="no"?>
<!DOCTYPE svg PUBLIC "-//W3C//DTD SVG 1.1//EN"
"http://www.w3.org/Graphics/SVG/1.1/DTD/svg11.dtd">
<svg viewBox="0 0 1466 825" version="1.1" xmlns="http://www.w3.org/2000/svg" xmlns:xlink="http://www.w3.org/1999/xlink">
<defs>
<clipPath id="c0_15"><path d="M0,825V0H1466.7V825Z"/></clipPath>
<clipPath id="c1_15"><path d="M1135.9,72.6V2.6H1206v70Z"/></clipPath>
<clipPath id="c2_15"><path d="M1466.7,825H0V0H1466.7V825Z"/></clipPath>
<style type="text/css"><![CDATA[
.g0_15{
fill: none;
stroke: #30243C;
stroke-width: 1.145;
stroke-linejoin: round;
}
.g1_15{
fill: #F07F09;
}
.g2_15{
fill: none;
stroke: #B05C05;
stroke-width: 1.527;
stroke-linejoin: round;
}
.g3_15{
fill: #1B587C;
}
.g4_15{
fill: none;
stroke: #1B587C;
stroke-width: 1.527;
stroke-linejoin: round;
}
]]></style>
</defs>
<g clip-path="url(#c0_15)">
<image x="0" y="0" width="1467" height="825" xlink:href="shade/1.png"/>
<image preserveAspectRatio="none" x="0" y="0" width="1467" height="825" xlink:href="img/1.png"/>
<path d="M-4.1,100.1H1466.6" class="g0_15"/>
</g>
<image clip-path="url(#c1_15)" preserveAspectRatio="none" x="1136" y="3" width="70" height="70" xlink:href="img/2.png"/>
<path fill-rule="evenodd" d="M978.6,396.1c0,-6.3,5.2,-11.5,11.5,-11.5h244.2c6.3,0,11.5,5.2,11.5,11.5v45.8c0,6.3,-5.2,11.5,-11.5,11.5H990.1c-6.3,0,-11.5,-5.2,-11.5,-11.5Z" class="g1_15"/>
<path d="M978.6,396.1c0,-6.3,5.2,-11.5,11.5,-11.5h244.2c6.3,0,11.5,5.2,11.5,11.5v45.8c0,6.3,-5.2,11.5,-11.5,11.5H990.1c-6.3,0,-11.5,-5.2,-11.5,-11.5Z" class="g2_15"/>
<path fill-rule="evenodd" d="M1112.3,606.5c0,-5.1,4.1,-9.2,9.1,-9.2h224.8c5.1,0,9.2,4.1,9.2,9.2v36.6c0,5.1,-4.1,9.2,-9.2,9.2H1121.4c-5,0,-9.1,-4.1,-9.1,-9.2Z" class="g3_15"/>
<path d="M1112.3,606.5c0,-5.1,4.1,-9.2,9.1,-9.2h224.8c5.1,0,9.2,4.1,9.2,9.2v36.6c0,5.1,-4.1,9.2,-9.2,9.2H1121.4c-5,0,-9.1,-4.1,-9.1,-9.2Z" class="g4_15"/>
<path fill-rule="evenodd" d="M862.2,606.5c0,-5.1,4.1,-9.2,9.2,-9.2h214.7c5,0,9.1,4.1,9.1,9.2v36.6c0,5.1,-4.1,9.2,-9.1,9.2H871.4c-5.1,0,-9.2,-4.1,-9.2,-9.2Z" class="g3_15"/>
<path d="M862.2,606.5c0,-5.1,4.1,-9.2,9.2,-9.2h214.7c5,0,9.1,4.1,9.1,9.2v36.6c0,5.1,-4.1,9.2,-9.1,9.2H871.4c-5.1,0,-9.2,-4.1,-9.2,-9.2Z" class="g4_15"/>
<path clip-path="url(#c2_15)" d="M977.9,597.3v-72c0,-.4,.3,-.7,.7,-.7h133.6l-.8,.7V461h1.6v64.3c0,.4,-.4,.8,-.8,.8H978.6l.8,-.8v72ZM1107.6,462.5l4.6,-9.1l4.6,9.1Z" class="g1_15"/>
<path clip-path="url(#c0_15)" d="M1234.6,597.3v-72c0,-.4,-.3,-.7,-.7,-.7H1112.3l.7,.7V461h-1.5v64.3c0,.4,.4,.8,.8,.8h121.6l-.8,-.8v72ZM1116.9,462.5l-4.6,-9.1l-4.6,9.1Z" class="g1_15"/>
</svg>