<?xml version="1.0" encoding="UTF-8" standalone="no"?>
<!DOCTYPE svg PUBLIC "-//W3C//DTD SVG 1.1//EN"
"http://www.w3.org/Graphics/SVG/1.1/DTD/svg11.dtd">
<svg viewBox="0 0 1466 825" version="1.1" xmlns="http://www.w3.org/2000/svg" xmlns:xlink="http://www.w3.org/1999/xlink">
<defs>
<clipPath id="c0_4"><path d="M0,825V0H1466.7V825Z"/></clipPath>
<clipPath id="c1_4"><path d="M1127,85.8V10.1h75.7V85.8Z"/></clipPath>
<style type="text/css"><![CDATA[
.g0_4{
fill: #3E3E3E;
}
.g1_4{
fill: none;
stroke: #2B5259;
stroke-width: 1.145;
stroke-linejoin: round;
}
.g2_4{
fill: #629DD1;
}
.g3_4{
fill: none;
stroke: #467299;
stroke-width: 1.527;
stroke-linejoin: round;
}
.g4_4{
fill: none;
stroke: #629DD1;
stroke-width: 1.527;
stroke-linejoin: round;
stroke-dasharray: 5,2;
}
.g5_4{
fill: #FFC000;
}
.g6_4{
fill: #4A66AC;
}
.g7_4{
fill: #92D050;
}
]]></style>
</defs>
<g clip-path="url(#c0_4)">
<path fill-rule="evenodd" d="M0,825H1466.7V0H0V825Z" class="g0_4"/>
<image preserveAspectRatio="none" x="0" y="0" width="1467" height="825" xlink:href="img/1.png"/>
<path d="M-4.1,100.1H1466.6" class="g1_4"/>
</g>
<image clip-path="url(#c1_4)" preserveAspectRatio="none" x="1127" y="10" width="76" height="76" xlink:href="img/2.png"/>
<path fill-rule="evenodd" d="M1009.1,499.3c0,-4.1,3.3,-7.4,7.4,-7.4h148.3c4.1,0,7.4,3.3,7.4,7.4v29.9c0,4.1,-3.3,7.4,-7.4,7.4H1016.5c-4.1,0,-7.4,-3.3,-7.4,-7.4Z" class="g2_4"/>
<path d="M1009.1,499.3c0,-4.1,3.3,-7.4,7.4,-7.4h148.3c4.1,0,7.4,3.3,7.4,7.4v29.9c0,4.1,-3.3,7.4,-7.4,7.4H1016.5c-4.1,0,-7.4,-3.3,-7.4,-7.4Z" class="g3_4"/>
<path d="M422.6,407.1c0,-16.4,13.2,-29.6,29.6,-29.6h705.3c16.3,0,29.6,13.2,29.6,29.6V525.4c0,16.3,-13.3,29.6,-29.6,29.6H452.2c-16.4,0,-29.6,-13.3,-29.6,-29.6Z" class="g4_4"/>
<path fill-rule="evenodd" d="M665.5,273.3c0,-3.5,2.8,-6.4,6.3,-6.4H921.9c3.5,0,6.3,2.9,6.3,6.4v25.3c0,3.5,-2.8,6.3,-6.3,6.3H671.8c-3.5,0,-6.3,-2.8,-6.3,-6.3Z" class="g2_4"/>
<path d="M665.5,273.3c0,-3.5,2.8,-6.4,6.3,-6.4H921.9c3.5,0,6.3,2.9,6.3,6.4v25.3c0,3.5,-2.8,6.3,-6.3,6.3H671.8c-3.5,0,-6.3,-2.8,-6.3,-6.3Z" class="g3_4"/>
<path fill-rule="evenodd" d="M234.7,291.1c0,-6.3,5,-11.3,11.3,-11.3H439.7c6.2,0,11.3,5,11.3,11.3v45.3c0,6.3,-5.1,11.4,-11.3,11.4H246c-6.3,0,-11.3,-5.1,-11.3,-11.4Z" class="g5_4"/>
<path d="M234.7,291.1c0,-6.3,5,-11.3,11.3,-11.3H439.7c6.2,0,11.3,5,11.3,11.3v45.3c0,6.3,-5.1,11.4,-11.3,11.4H246c-6.3,0,-11.3,-5.1,-11.3,-11.4Z" class="g3_4"/>
<path d="M118.3,283.6c0,-8.8,7.1,-15.9,15.9,-15.9H916.5c8.8,0,15.9,7.1,15.9,15.9v64c0,8.8,-7.1,15.9,-15.9,15.9H134.2c-8.8,0,-15.9,-7.1,-15.9,-15.9Z" class="g4_4"/>
<path fill-rule="evenodd" d="M858.7,663.7c0,-3.6,2.9,-6.4,6.5,-6.4h300.6c3.6,0,6.4,2.8,6.4,6.4v25.6c0,3.6,-2.8,6.5,-6.4,6.5H865.2c-3.6,0,-6.5,-2.9,-6.5,-6.5Z" class="g2_4"/>
<path d="M858.7,663.7c0,-3.6,2.9,-6.4,6.5,-6.4h300.6c3.6,0,6.4,2.8,6.4,6.4v25.6c0,3.6,-2.8,6.5,-6.4,6.5H865.2c-3.6,0,-6.5,-2.9,-6.5,-6.5Z" class="g3_4"/>
<path d="M118.3,592.3c0,-13.4,10.9,-24.3,24.3,-24.3H1162.7c13.5,0,24.4,10.9,24.4,24.3v97.4c0,13.5,-10.9,24.4,-24.4,24.4H142.6c-13.4,0,-24.3,-10.9,-24.3,-24.4Z" class="g4_4"/>
<path fill-rule="evenodd" d="M425.3,606.8c0,-3.5,2.9,-6.4,6.5,-6.4H622.4c3.6,0,6.4,2.9,6.4,6.4v25.7c0,3.5,-2.8,6.4,-6.4,6.4H431.8c-3.6,0,-6.5,-2.9,-6.5,-6.4Z" class="g6_4"/>
<path d="M425.3,606.8c0,-3.5,2.9,-6.4,6.5,-6.4H622.4c3.6,0,6.4,2.9,6.4,6.4v25.7c0,3.5,-2.8,6.4,-6.4,6.4H431.8c-3.6,0,-6.5,-2.9,-6.5,-6.4Z" class="g3_4"/>
<path fill-rule="evenodd" d="M360.3,658.4c0,-3.6,2.8,-6.5,6.4,-6.5H659.1c3.5,0,6.4,2.9,6.4,6.5v25.8c0,3.5,-2.9,6.4,-6.4,6.4H366.7c-3.6,0,-6.4,-2.9,-6.4,-6.4Z" class="g6_4"/>
<path d="M360.3,658.4c0,-3.6,2.8,-6.5,6.4,-6.5H659.1c3.5,0,6.4,2.9,6.4,6.5v25.8c0,3.5,-2.9,6.4,-6.4,6.4H366.7c-3.6,0,-6.4,-2.9,-6.4,-6.4Z" class="g3_4"/>
<path fill-rule="evenodd" d="M640.7,496c0,-4.5,3.7,-8.1,8.2,-8.1H882c4.4,0,8.1,3.6,8.1,8.1v32.5c0,4.5,-3.7,8.1,-8.1,8.1H648.9c-4.5,0,-8.2,-3.6,-8.2,-8.1Z" class="g5_4"/>
<path d="M640.7,496c0,-4.5,3.7,-8.1,8.2,-8.1H882c4.4,0,8.1,3.6,8.1,8.1v32.5c0,4.5,-3.7,8.1,-8.1,8.1H648.9c-4.5,0,-8.2,-3.6,-8.2,-8.1Z" class="g3_4"/>
<path fill-rule="evenodd" d="M618.9,405.1c0,-6.2,5.1,-11.3,11.4,-11.3H900.6c6.2,0,11.3,5.1,11.3,11.3v45.4c0,6.2,-5.1,11.3,-11.3,11.3H630.3c-6.3,0,-11.4,-5.1,-11.4,-11.3Z" class="g5_4"/>
<path d="M618.9,405.1c0,-6.2,5.1,-11.3,11.4,-11.3H900.6c6.2,0,11.3,5.1,11.3,11.3v45.4c0,6.2,-5.1,11.3,-11.3,11.3H630.3c-6.3,0,-11.4,-5.1,-11.4,-11.3Z" class="g3_4"/>
<path d="M937.7,267.5c0,-11,9,-20,20,-20h411.2c11.1,0,20,9,20,20v79.9c0,11,-8.9,20,-20,20H957.7c-11,0,-20,-9,-20,-20Z" class="g4_4"/>
<path fill-rule="evenodd" d="M1202.1,267.4c0,-6,4.9,-10.9,11,-10.9h155.4c6,0,10.9,4.9,10.9,10.9v43.8c0,6,-4.9,10.9,-10.9,10.9H1213.1c-6.1,0,-11,-4.9,-11,-10.9Z" class="g2_4"/>
<path d="M1202.1,267.4c0,-6,4.9,-10.9,11,-10.9h155.4c6,0,10.9,4.9,10.9,10.9v43.8c0,6,-4.9,10.9,-10.9,10.9H1213.1c-6.1,0,-11,-4.9,-11,-10.9Z" class="g3_4"/>
<path clip-path="url(#c0_4)" d="M766.7,393.8v-80c0,-.7,-.5,-1.2,-1.1,-1.2H458.7v2.3H765.6l-1.2,-1.1v80ZM460.3,309.2l-9.2,4.6l9.2,4.6Z" class="g7_4"/>
<path fill-rule="evenodd" d="M960.7,274.6c0,-6.9,5.6,-12.6,12.6,-12.6h166.5c7,0,12.6,5.7,12.6,12.6v50.6c0,7,-5.6,12.7,-12.6,12.7H973.3c-7,0,-12.6,-5.7,-12.6,-12.7Z" class="g5_4"/>
<path d="M960.7,274.6c0,-6.9,5.6,-12.6,12.6,-12.6h166.5c7,0,12.6,5.7,12.6,12.6v50.6c0,7,-5.6,12.7,-12.6,12.7H973.3c-7,0,-12.6,-5.7,-12.6,-12.7Z" class="g3_4"/>
<path d="M912,428.9h144.7c.6,0,1.1,-.5,1.1,-1.1V345.6h-2.2v82.2l1.1,-1.2H912Zm149.3,-81.8l-4.6,-9.1l-4.6,9.1Z" class="g7_4"/>
<path d="M342.1,279.7l.1,-1.3q0,-.1,0,-.2l.4,-1.3q0,-.1,.1,-.1l.6,-1.4c0,0,0,-.1,.1,-.1l.9,-1.3l1.1,-1.4l1.5,-1.4l1.6,-1.4l.5,-.4l.9,1.3l-.4,.3l-1.6,1.3l-1.3,1.2l-1.1,1.3l-.9,1.4l.1,-.1l-.7,1.3l.1,-.1l-.4,1.3v-.1l-.1,1.3Zm10.8,-12.9l1.9,-1.1l2.6,-1.3l2.7,-1.3l3,-1.3l.9,-.4l.6,1.5l-.9,.3l-2.9,1.3l-2.7,1.3l-2.5,1.3l-1.9,1.1Zm15.4,-7l1.4,-.6l3.6,-1.3l3.7,-1.2l2.9,-.9l.4,1.4l-2.8,.9l-3.7,1.3l-3.6,1.2l-1.4,.6Zm16,-5.3l.8,-.3l4.4,-1.2l6.6,-1.8l.4,1.5l-6.6,1.7l-4.3,1.3l-.9,.2Zm16.3,-4.4l7.9,-1.9l4,-.9l.3,1.5l-3.9,.9l-8,1.9Zm16.3,-3.7l2.2,-.5l9.8,-1.9l.3,1.5l-9.8,1.9l-2.1,.5Zm16.6,-3.3l8.4,-1.5l3.6,-.6l.3,1.5l-3.6,.6l-8.5,1.5ZM450,240.2l4.2,-.7l7.9,-1.2l.2,1.5l-7.8,1.2l-4.2,.7Zm16.6,-2.6l.4,-.1l11.7,-1.7l.3,1.6L467.3,239l-.4,.1Zm16.7,-2.4l10.8,-1.4l1.3,-.1l.2,1.5l-1.3,.1l-10.8,1.4ZM500,233.1l8.3,-1l3.8,-.4l.2,1.5l-3.8,.4l-8.4,1Zm16.7,-1.9l6.2,-.7l5.9,-.6l.2,1.6l-6,.6l-6.2,.6Zm16.7,-1.7l4.4,-.4l7.8,-.7l.1,1.5l-7.8,.7l-4.3,.4ZM550.2,228l2.9,-.3l9.2,-.7l.2,1.5l-9.3,.7l-2.9,.3Zm16.7,-1.4l1.7,-.2l10.5,-.7l.1,1.5l-10.5,.8l-1.7,.1Zm16.8,-1.2l.7,-.1l11.5,-.7l.1,1.6l-11.5,.7h-.7Zm16.7,-1h.1l12.2,-.7v1.5l-12.1,.7h-.1Zm16.9,-.9l12.2,-.6v1.6l-12.2,.5Zm16.7,-.7l12.3,-.4v1.5l-12.2,.4Zm16.8,-.5l12.3,-.4v1.6l-12.2,.3Zm16.9,-.5l12.2,-.1v1.5l-12.2,.1Zm16.8,-.2l12.2,-.1v1.6l-12.2,.1Zm16.8,-.1l12.2,.1v1.5L701.3,223Zm16.8,.1l12.2,.1v1.5H718.1Zm16.8,.2l12.2,.2v1.5l-12.2,-.2Zm16.8,.3l12.2,.3v1.5l-12.2,-.3Zm16.8,.4l12.2,.3v1.6L768.5,224Zm16.8,.5l12.2,.4v1.5l-12.2,-.4Zm16.8,.6l12.2,.5v1.6l-12.2,-.6Zm16.8,.7l11.9,.6h.3l-.1,1.6l-.3,-.1l-11.9,-.5Zm16.8,.9l10.6,.6l1.6,.1l-.1,1.5l-1.5,-.1l-10.7,-.6Zm16.8,1l9.1,.5l3.1,.2l-.1,1.5l-3.1,-.2l-9.1,-.5Zm16.8,1l7.2,.5l5,.4l-.2,1.5l-4.9,-.3l-7.2,-.5Zm16.7,1.3l5.1,.3l7.1,.6l-.1,1.6l-7.1,-.6l-5.1,-.4Zm16.8,1.3l2.5,.2l9.7,.9l-.2,1.5l-9.7,-.9l-2.4,-.2Zm16.7,1.5l12.2,1.2l-.2,1.5l-12.1,-1.2Zm16.8,1.7l8.8,.9l3.3,.4l-.2,1.5l-3.2,-.4l-8.9,-.9Zm16.7,1.8l4.4,.5l7.7,1l-.2,1.5l-7.7,-.9l-4.4,-.6Zm16.7,2.1l10.6,1.4l1.5,.3l-.2,1.5l-1.5,-.2l-10.6,-1.5Zm16.6,2.4l4.5,.6l7.6,1.3l-.3,1.5l-7.5,-1.2l-4.5,-.7Zm16.6,2.7l7,1.2l4.3,.9l.7,.1l-.3,1.5l-.7,-.1l-4.3,-.9l-6.9,-1.2Zm16.5,3.2l2.9,.6l3.8,.9l3.5,.8l1.8,.5l-.4,1.5l-1.7,-.5l-3.6,-.9l-3.7,-.8l-2.9,-.7Zm16.4,4l.4,.1l2.9,.9l2.8,.9l2.6,.9l2.3,1l.6,.3l-.6,1.3l-.6,-.2l-2.3,-.9l-2.5,-.9l-2.7,-.9l-2.9,-.9l-.4,-.1Zm15.7,6.5l.2,.2l-.9,1.2l-.2,-.1Zm2,-3.5l3.1,9.8l-9.7,-3.4Z" class="g7_4"/>
<path d="M766.7,487.9V469.5h-2.3v18.4Zm3.4,-16.8l-4.6,-9.2l-4.6,9.2Z" class="g7_4"/>
<path d="M665.5,672.1h99.9c.4,0,.7,-.4,.7,-.8v-127h-1.5v127l.8,-.8H665.5ZM769.9,545.8l-4.5,-9.2l-4.6,9.2Z" class="g7_4"/>
<path d="M628.8,618.9h129v1.5h-129Zm127.5,-3.8l9.2,4.6l-9.2,4.6Z" class="g7_4"/>
<path d="M360.3,672.1H342.8c-.4,0,-.7,-.3,-.7,-.7v-316h1.5v316l-.8,-.8h17.5ZM338.2,357l4.6,-9.2l4.6,9.2Z" class="g6_4"/>
<path d="M425.4,618.9H350.5v1.5h74.9ZM352,615.1l-9.2,4.6l9.2,4.6Z" class="g6_4"/>
</svg>