<svg viewBox="0 0 1466 825" version="1.1" xmlns="http://www.w3.org/2000/svg">
<defs>
<clipPath id="c0_6"><path d="M-.2 825.3V-.2H1467V825.3Z"/></clipPath>
<clipPath id="c1_6"><path d="M1117.7 86.1V-.2h87.2V86.1Z"/></clipPath>
<clipPath id="c2_6"><path d="M-.2 276V236.7H1256V276Z"/></clipPath>
<clipPath id="c3_6"><path d="M1273.1 254.8v-18h193.5v18Z"/></clipPath>
<style>
.g0_6{fill:none;stroke:#30243C;stroke-width:1.145;stroke-linejoin:round;}
.g1_6{fill:#252525;}
.g2_6{fill:#F07F09;}
.g3_6{fill:#F07F09;fill-opacity:0.2;}
.g4_6{fill:none;stroke:#F07F09;stroke-width:1.527;stroke-linejoin:round;}
.g5_6{fill:none;stroke:#F07F09;stroke-width:3.055;stroke-linejoin:round;}
</style>
</defs>
<g clip-path="url(#c0_6)">
<image x="0" y="0" width="1467" height="825" href="shade/1.png"/>
<image preserveAspectRatio="none" x="0" y="0" width="1467" height="825" href="img/1.png"/>
<path d="M-4.1 100.2H1466.7" class="g0_6"/>
</g>
<image clip-path="url(#c1_6)" preserveAspectRatio="none" x="1118" y="0" width="87" height="86" href="img/2.png"/>
<image clip-path="url(#c2_6)" preserveAspectRatio="none" x="0" y="237" width="1256" height="39" href="img/3.png"/>
<image clip-path="url(#c3_6)" preserveAspectRatio="none" x="1273" y="237" width="193" height="17" href="img/4.png"/>
<path fill-rule="evenodd" d="M0 237.9H1255.6V73.3H0V237.9Z" class="g1_6"/>
<path fill-rule="evenodd" d="M1273.4 237.9h192.9V73.3H1273.4V237.9Z" class="g2_6"/>
<path fill-rule="evenodd" d="M246.9 380.7H522.7V252.4H246.9V380.7Z" class="g3_6"/>
<path fill-rule="evenodd" d="M522.7 380.7H999.3V252.4H522.7V380.7Z" class="g3_6"/>
<path fill-rule="evenodd" d="M246.9 549.4H522.7V479.7H246.9v69.7Z" class="g3_6"/>
<path fill-rule="evenodd" d="M522.7 549.4H999.3V479.7H522.7v69.7Z" class="g3_6"/>
<path fill-rule="evenodd" d="M246.9 663.7H522.7V594H246.9v69.7Z" class="g3_6"/>
<path fill-rule="evenodd" d="M522.7 663.7H999.3V594H522.7v69.7Z" class="g3_6"/>
<path d="M522.7 207V709" class="g4_6"/>
<path d="M246.1 252.4h754" class="g5_6"/>
<path d="M246.1 380.7h754m-754 99h754m-754 69.7h754M246.1 594h754m-754 69.7h754M246.9 207V709M999.3 207V709M246.1 207.8h754m-754 500.5h754" class="g4_6"/>
</svg>