<?xml version="1.0" encoding="UTF-8" standalone="no"?>
<!DOCTYPE svg PUBLIC "-//W3C//DTD SVG 1.1//EN"
"http://www.w3.org/Graphics/SVG/1.1/DTD/svg11.dtd">
<svg viewBox="0 0 1466 825" version="1.1" xmlns="http://www.w3.org/2000/svg" xmlns:xlink="http://www.w3.org/1999/xlink">
<defs>
<clipPath id="c0_11"><path d="M0,825V0H1466.7V825Z"/></clipPath>
<clipPath id="c1_11"><path d="M1171.1,90.6V.7H1446V90.6Z"/></clipPath>
<clipPath id="c2_11"><path d="M0,275.7V237.1H1255.7v38.6Z"/></clipPath>
<clipPath id="c3_11"><path d="M1273.4,254.5V237.1h192.9v17.4Z"/></clipPath>
<clipPath id="c4_11"><path d="M547.1,673.4V320.3H970.2V673.4Z"/></clipPath>
<clipPath id="c5_11"><path d="M89.8,629.4V494.3H482.5V629.4Z"/></clipPath>
<clipPath id="c6_11"><path d="M991.3,448.1V316.4h409.4V448.1Z"/></clipPath>
<style type="text/css"><![CDATA[
.g0_11{
fill: none;
stroke: #30243C;
stroke-width: 1.145;
stroke-linejoin: round;
}
.g1_11{
fill: #252525;
}
.g2_11{
fill: #F07F09;
}
]]></style>
</defs>
<g clip-path="url(#c0_11)">
<image x="0" y="0" width="1467" height="825" xlink:href="shade/1.png"/>
<image preserveAspectRatio="none" x="0" y="0" width="1467" height="825" xlink:href="img/1.png"/>
<path d="M-4.1,100.1H1466.6" class="g0_11"/>
</g>
<image clip-path="url(#c1_11)" preserveAspectRatio="none" x="1171" y="1" width="275" height="90" xlink:href="img/2.png"/>
<image clip-path="url(#c2_11)" preserveAspectRatio="none" x="0" y="237" width="1256" height="39" xlink:href="img/3.png"/>
<image clip-path="url(#c3_11)" preserveAspectRatio="none" x="1273" y="237" width="193" height="17" xlink:href="img/4.png"/>
<path fill-rule="evenodd" d="M0,238H1255.7V73.3H0V238Z" class="g1_11"/>
<path fill-rule="evenodd" d="M1273.4,238h192.9V73.3H1273.4V238Z" class="g2_11"/>
<image clip-path="url(#c4_11)" preserveAspectRatio="none" x="547" y="320" width="423" height="353" xlink:href="img/5.jpg"/>
<image clip-path="url(#c5_11)" preserveAspectRatio="none" x="90" y="494" width="393" height="135" xlink:href="img/6.jpg"/>
<image clip-path="url(#c6_11)" preserveAspectRatio="none" x="991" y="316" width="410" height="132" xlink:href="img/7.jpg"/>
</svg>