<svg viewBox="0 0 1466 825" version="1.1" xmlns="http://www.w3.org/2000/svg">
<defs>
<clipPath id="c0_15"><path d="M-.2 825.3V-.2H1467V825.3Z"/></clipPath>
<clipPath id="c1_15"><path d="M1119.8 84.6V8.1h76.5V84.6Z"/></clipPath>
<clipPath id="c2_15"><path d="M-.2 276V236.7H1256V276Z"/></clipPath>
<clipPath id="c3_15"><path d="M1273.1 254.8v-18h193.5v18Z"/></clipPath>
<clipPath id="c4_15"><path d="M675 407.3V264.6h338.6V407.3Z"/></clipPath>
<clipPath id="c5_15"><path d="M675 670.1V464.4h656V670.1Z"/></clipPath>
<style>
.g0_15{fill:none;stroke:#30243C;stroke-width:1.145;stroke-linejoin:round;}
.g1_15{fill:#252525;}
.g2_15{fill:#F07F09;}
</style>
</defs>
<g clip-path="url(#c0_15)">
<image x="0" y="0" width="1467" height="825" href="shade/1.png"/>
<image preserveAspectRatio="none" x="0" y="0" width="1467" height="825" href="img/1.png"/>
<path d="M-4.1 100.2H1466.7" class="g0_15"/>
</g>
<image clip-path="url(#c1_15)" preserveAspectRatio="none" x="1120" y="8" width="76" height="76" href="img/2.png"/>
<image clip-path="url(#c2_15)" preserveAspectRatio="none" x="0" y="237" width="1256" height="39" href="img/3.png"/>
<image clip-path="url(#c3_15)" preserveAspectRatio="none" x="1273" y="237" width="193" height="17" href="img/4.png"/>
<path fill-rule="evenodd" d="M0 237.9H1255.6V73.3H0V237.9Z" class="g1_15"/>
<path fill-rule="evenodd" d="M1273.4 237.9h192.9V73.3H1273.4V237.9Z" class="g2_15"/>
<image clip-path="url(#c4_15)" preserveAspectRatio="none" x="675" y="265" width="338" height="142" href="img/5.jpg"/>
<image clip-path="url(#c5_15)" preserveAspectRatio="none" x="675" y="465" width="656" height="205" href="img/6.jpg"/>
</svg>