<?xml version="1.0" encoding="UTF-8" standalone="no"?>
<!DOCTYPE svg PUBLIC "-//W3C//DTD SVG 1.1//EN"
"http://www.w3.org/Graphics/SVG/1.1/DTD/svg11.dtd">
<svg viewBox="0 0 1466 825" version="1.1" xmlns="http://www.w3.org/2000/svg" xmlns:xlink="http://www.w3.org/1999/xlink">
<defs>
<clipPath id="c0_2"><path d="M0,825V0H1466.7V825Z"/></clipPath>
<clipPath id="c1_2"><path d="M1139.1,72.6V9h63.8V72.6Z"/></clipPath>
<clipPath id="c2_2"><path d="M0,275.7V237.1H1255.7v38.6Z"/></clipPath>
<clipPath id="c3_2"><path d="M1273.4,254.5V237.1h192.9v17.4Z"/></clipPath>
<style type="text/css"><![CDATA[
.g0_2{
fill: none;
stroke: #30243C;
stroke-width: 1.145;
stroke-linejoin: round;
}
.g1_2{
fill: #252525;
}
.g2_2{
fill: #F07F09;
}
.g3_2{
fill: none;
stroke: #FFF;
stroke-width: 1.527;
stroke-linejoin: round;
}
]]></style>
</defs>
<g clip-path="url(#c0_2)">
<image x="0" y="0" width="1467" height="825" xlink:href="shade/1.png"/>
<image preserveAspectRatio="none" x="0" y="0" width="1467" height="825" xlink:href="img/1.png"/>
<path d="M-4.1,100.1H1466.6" class="g0_2"/>
</g>
<image clip-path="url(#c1_2)" preserveAspectRatio="none" x="1139" y="9" width="64" height="64" xlink:href="img/2.png"/>
<image clip-path="url(#c2_2)" preserveAspectRatio="none" x="0" y="237" width="1256" height="39" xlink:href="img/3.png"/>
<image clip-path="url(#c3_2)" preserveAspectRatio="none" x="1273" y="237" width="193" height="17" xlink:href="img/4.png"/>
<path fill-rule="evenodd" d="M0,238H1255.7V73.3H0V238Z" class="g1_2"/>
<path fill-rule="evenodd" d="M1273.4,238h192.9V73.3H1273.4V238Z" class="g2_2"/>
<path fill-rule="evenodd" d="M81.8,234.6c0,-6.8,5.4,-12.2,12.2,-12.2H1144.8c6.8,0,12.2,5.4,12.2,12.2v48.7c0,6.8,-5.4,12.2,-12.2,12.2H94c-6.8,0,-12.2,-5.4,-12.2,-12.2Z" class="g2_2"/>
<path d="M81.8,234.6c0,-6.8,5.4,-12.2,12.2,-12.2H1144.8c6.8,0,12.2,5.4,12.2,12.2v48.7c0,6.8,-5.4,12.2,-12.2,12.2H94c-6.8,0,-12.2,-5.4,-12.2,-12.2Z" class="g3_2"/>
<path fill-rule="evenodd" d="M81.8,505.2C81.8,498.5,87.2,493,94,493H1144.8c6.7,0,12.2,5.5,12.2,12.2v48.9c0,6.7,-5.5,12.2,-12.2,12.2H94c-6.8,0,-12.2,-5.5,-12.2,-12.2Z" class="g2_2"/>
<path d="M81.8,505.2C81.8,498.5,87.2,493,94,493H1144.8c6.7,0,12.2,5.5,12.2,12.2v48.9c0,6.7,-5.5,12.2,-12.2,12.2H94c-6.8,0,-12.2,-5.5,-12.2,-12.2Z" class="g3_2"/>
</svg>